<?xml version="1.0" encoding="utf-8"?>
<!-- Generator: Adobe Illustrator 18.1.1, SVG Export Plug-In . SVG Version: 6.00 Build 0)  -->
<svg version="1.1" id="Layer_1" xmlns:x="&ns_extend;" xmlns:i="&ns_ai;" xmlns:graph="&ns_graphs;"
	 xmlns="http://www.w3.org/2000/svg" xmlns:xlink="http://www.w3.org/1999/xlink" x="0px" y="0px" viewBox="283.5 94 347 216.4"
	 enable-background="new 283.5 94 347 216.4" xml:space="preserve">
<metadata>
	<sfw  xmlns="&ns_sfw;">
		<slices></slices>
		<sliceSourceBounds  width="348.2" height="295.1" bottomLeftOrigin="true" x="282.9" y="237.5"></sliceSourceBounds>
	</sfw>
</metadata>
<g>
	<g>
		<defs>
			<rect id="SVGID_1_" x="282.9" y="94" width="348.2" height="216.4"/>
		</defs>
		<clipPath id="SVGID_2_">
			<use xlink:href="#SVGID_1_"  overflow="visible"/>
		</clipPath>
		<rect x="283.7" y="77.3" clip-path="url(#SVGID_2_)" width="347" height="245.1"/>
	</g>
	<g>
		<defs>
			<rect id="SVGID_3_" x="282.9" y="94" width="348.2" height="216.4"/>
		</defs>
		<clipPath id="SVGID_4_">
			<use xlink:href="#SVGID_3_"  display="none" overflow="visible"/>
		</clipPath>
		
			<linearGradient id="SVGID_5_" gradientUnits="userSpaceOnUse" x1="212.4998" y1="380.95" x2="580.8077" y2="380.95" gradientTransform="matrix(0.9407 0 0 -0.9407 84.0114 526.7932)">
			<stop  offset="0.1757" style="stop-color:#CE3E29"/>
			<stop  offset="0.2249" style="stop-color:#C33B27"/>
			<stop  offset="0.3103" style="stop-color:#A73221"/>
			<stop  offset="0.7891" style="stop-color:#782418"/>
			<stop  offset="1" style="stop-color:#39110B"/>
			<stop  offset="1" style="stop-color:#000000"/>
		</linearGradient>
		<path clip-path="url(#SVGID_4_)" fill="url(#SVGID_5_)" d="M630.4,145.4v0.3c-19.3,5.6-38.9,10-58.7,13.2
			c-22.8,3.7-45.7,5.7-68.8,6.4c-0.5,0.6-1.1,0.8-1.9,0.8c-0.8,0-1.4-0.3-1.9-0.8c-9.5,0.2-19.1,0.1-28.6-0.2
			c-16.9-0.6-33.8-1.7-50.6-3.8c-16.8-1.2-33.8-2.2-50.5-4.3c-28.9-3-57.5-8.5-85.6-15.6v-0.4c29.1,7.4,58.6,13.1,88.5,16
			c8.5,1,17,1.7,25.6,2.4c8.6,0.7,17.1,0.7,25.7,1.9c17,1.9,34.1,3.2,51.3,3.5c8,0.2,16,0.2,23.9,0.1c-0.2-0.4-0.4-0.8-0.4-1.3
			c0-1.4,1.1-2.5,2.5-2.5c1.4,0,2.5,1.1,2.5,2.5c0,0.5-0.1,0.8-0.3,1.2c24.8-0.7,49.7-3.1,74.1-7.2
			C595.2,154.6,613,150.5,630.4,145.4z M339.9,120.2c1,0,2-0.8,2-2c0-1-0.8-2-2-2c-1,0-2,0.8-2,2C338,119.3,338.8,120.2,339.9,120.2
			z M571.3,276.5c0,1,0.8,2,2,2c1,0,2-0.8,2-2c0-1-0.8-2-2-2S571.3,275.3,571.3,276.5z M604,158.1c0-1-0.8-2-2-2c-1,0-2,0.8-2,2
			c0,1,0.8,2,2,2C603.2,160,604,159.2,604,158.1z M422.2,33.6c0.8,0,1.3-0.6,1.3-1.3c0-0.8-0.6-1.3-1.3-1.3c-0.8,0-1.3,0.6-1.3,1.3
			S421.4,33.6,422.2,33.6z M602.1,292.3c-0.8,0-1.3,0.6-1.3,1.3c0,0.8,0.6,1.3,1.3,1.3s1.3-0.6,1.3-1.3
			C603.5,292.8,602.8,292.3,602.1,292.3z M294.4,50.8c0.5,0,0.9-0.4,0.9-0.9c0-0.5-0.4-0.9-0.9-0.9c-0.5,0-0.9,0.4-0.9,0.9
			S293.8,50.8,294.4,50.8z M322.6,33.6c1.7,0,3.1-1.4,3.1-3.1s-1.4-3.1-3.1-3.1s-3.1,1.4-3.1,3.1S320.9,33.6,322.6,33.6z
			 M403.5,66.7c0.8,0,1.6-0.7,1.6-1.6c0-0.8-0.7-1.6-1.6-1.6c-0.8,0-1.6,0.7-1.6,1.6C401.9,65.9,402.5,66.7,403.5,66.7z M301.8,79.2
			c0.8,0,1.6-0.7,1.6-1.6c0-0.8-0.7-1.6-1.6-1.6c-0.8,0-1.6,0.7-1.6,1.6C300.3,78.5,300.9,79.2,301.8,79.2z M311.7,134.1
			c0.8,0,1.6-0.7,1.6-1.6c0-0.8-0.7-1.6-1.6-1.6c-0.8,0-1.6,0.7-1.6,1.6S310.7,134.1,311.7,134.1z M499.5,153.9
			c0,0.8,0.7,1.6,1.6,1.6c0.8,0,1.6-0.7,1.6-1.6c0-0.8-0.7-1.6-1.6-1.6C500.2,152.3,499.5,153.1,499.5,153.9z M447.3,151.9
			c0.8,0,1.6-0.7,1.6-1.6c0-0.8-0.7-1.6-1.6-1.6c-0.8,0-1.6,0.7-1.6,1.6C445.8,151.3,446.5,151.9,447.3,151.9z M292.6,163.5
			c0-0.7-0.6-1.1-1.1-1.1c-0.7,0-1.1,0.6-1.1,1.1c0,0.7,0.6,1.1,1.1,1.1C292.1,164.6,292.6,164.1,292.6,163.5z M338.2,185.8
			c0,0.7,0.6,1.1,1.1,1.1c0.7,0,1.1-0.6,1.1-1.1c0-0.7-0.6-1.1-1.1-1.1C338.7,184.7,338.2,185.1,338.2,185.8z M393,236.6
			c-0.7,0-1.1,0.6-1.1,1.1c0,0.7,0.6,1.2,1.1,1.2c0.7,0,1.1-0.6,1.1-1.2C394.3,237.2,393.7,236.6,393,236.6z M451.4,218.7
			c0.7,0,1.1-0.6,1.1-1.1c0-0.7-0.6-1.1-1.1-1.1c-0.7,0-1.1,0.6-1.1,1.1C450.2,218.2,450.7,218.7,451.4,218.7z M620.6,105.7
			c0.8,0,1.6-0.7,1.6-1.6c0-0.8-0.7-1.6-1.6-1.6c-0.8,0-1.6,0.7-1.6,1.6S619.7,105.7,620.6,105.7z M393.6,108.7
			c1.4,0,2.5-1.1,2.5-2.5c0-1.4-1.1-2.5-2.5-2.5c-1.4,0-2.5,1.1-2.5,2.5C391.1,107.5,392.2,108.7,393.6,108.7z M315.7,70.9
			c1.4,0,2.5-1.1,2.5-2.5s-1.1-2.5-2.5-2.5c-1.4,0-2.5,1.1-2.5,2.5C313.2,69.8,314.3,70.9,315.7,70.9z M299.5,290
			c0-1.4-1.1-2.5-2.5-2.5c-1.4,0-2.5,1.1-2.5,2.5c0,1.4,1.1,2.5,2.5,2.5C298.4,292.6,299.5,291.4,299.5,290z M295.2,265.7
			c0-1.4-1.1-2.5-2.5-2.5c-1.4,0-2.5,1.1-2.5,2.5c0,1.4,1.1,2.5,2.5,2.5C294.1,268.3,295.2,267.2,295.2,265.7z M299.5,241.6
			c0-1.4-1.1-2.5-2.5-2.5c-1.4,0-2.5,1.1-2.5,2.5s1.1,2.5,2.5,2.5C298.4,244.1,299.5,242.9,299.5,241.6z M294.4,200.8
			c0,1.4,1.1,2.5,2.5,2.5c1.4,0,2.5-1.1,2.5-2.5s-1.1-2.5-2.5-2.5C295.6,198.3,294.4,199.4,294.4,200.8z M369.3,145.5
			c1.4,0,2.5-1.1,2.5-2.5c0-1.4-1.1-2.5-2.5-2.5c-1.4,0-2.5,1.1-2.5,2.5C366.7,144.4,367.9,145.5,369.3,145.5z M396.9,189.3
			c0,1.4,1.1,2.5,2.5,2.5c1.4,0,2.5-1.1,2.5-2.5c0-1.4-1.1-2.5-2.5-2.5C398,186.7,396.9,187.9,396.9,189.3z M370.2,258.3
			c0,0.6,0.5,0.9,0.9,0.9c0.6,0,0.9-0.5,0.9-0.9c0-0.6-0.5-0.9-0.9-0.9C370.5,257.4,370.2,257.8,370.2,258.3z M300.7,298.4
			c-0.6,0-0.9,0.5-0.9,0.9c0,0.6,0.5,0.9,0.9,0.9c0.6,0,0.9-0.5,0.9-0.9S301.2,298.4,300.7,298.4z M346.5,176.9
			c0,0.6,0.5,0.9,0.9,0.9c0.6,0,0.9-0.5,0.9-0.9c0-0.6-0.5-0.9-0.9-0.9C346.9,176,346.5,176.4,346.5,176.9z M410.6,233.8
			c-0.7,0-1.2,0.6-1.2,1.2s0.6,1.2,1.2,1.2c0.7,0,1.2-0.6,1.2-1.2C411.9,234.3,411.4,233.8,410.6,233.8z M467.7,154.3
			c0.7,0,1.2-0.6,1.2-1.2s-0.6-1.2-1.2-1.2c-0.7,0-1.2,0.6-1.2,1.2S467.1,154.3,467.7,154.3z M427.1,31.6c0.7,0,1.2-0.6,1.2-1.2
			s-0.6-1.2-1.2-1.2c-0.7,0-1.2,0.6-1.2,1.2C425.9,31,426.4,31.6,427.1,31.6z M369.6,250.3c-1.4,0-2.5,1.1-2.5,2.5s1.1,2.5,2.5,2.5
			c1.4,0,2.5-1.1,2.5-2.5C372.1,251.4,371,250.3,369.6,250.3z M306.9,172.9c0,1.4,1.1,2.5,2.5,2.5c1.4,0,2.5-1.1,2.5-2.5
			c0-1.4-1.1-2.5-2.5-2.5C308,170.4,306.9,171.5,306.9,172.9z M393.9,246.6c0-1.4-1.1-2.5-2.5-2.5c-1.4,0-2.5,1.1-2.5,2.5
			c0,1.4,1.1,2.5,2.5,2.5C392.7,249.1,393.9,248,393.9,246.6z M372.1,186.6c1.4,0,2.5-1.1,2.5-2.5s-1.1-2.5-2.5-2.5
			c-1.4,0-2.5,1.1-2.5,2.5S370.6,186.6,372.1,186.6z M339.2,166.3c0,1.4,1.1,2.5,2.5,2.5s2.5-1.1,2.5-2.5s-1.1-2.5-2.5-2.5
			S339.2,164.9,339.2,166.3z M382.5,274.2c-1.4,0-2.5,1.1-2.5,2.5c0,1.4,1.1,2.5,2.5,2.5c1.4,0,2.5-1.1,2.5-2.5
			C385,275.3,383.9,274.2,382.5,274.2z M360.3,280.1c-1.4,0-2.5,1.1-2.5,2.5c0,1.4,1.1,2.5,2.5,2.5c1.4,0,2.5-1.1,2.5-2.5
			C362.8,281.3,361.7,280.1,360.3,280.1z M430.4,257.4c0,1.4,1.1,2.5,2.5,2.5c1.4,0,2.5-1.1,2.5-2.5c0-1.4-1.1-2.5-2.5-2.5
			C431.5,254.8,430.4,256,430.4,257.4z M313.4,288.1c0-1.4-1.1-2.5-2.5-2.5s-2.5,1.1-2.5,2.5c0,1.4,1.1,2.5,2.5,2.5
			S313.4,289.5,313.4,288.1z M341.1,277c0-0.9-0.8-1.7-1.8-1.7c-0.9,0-1.8,0.8-1.8,1.7s0.8,1.8,1.8,1.8
			C340.4,278.7,341.1,278,341.1,277z M466.4,222.8c-0.9,0-1.8,0.8-1.8,1.8c0,0.9,0.8,1.8,1.8,1.8c0.9,0,1.8-0.8,1.8-1.8
			C468.1,223.5,467.3,222.8,466.4,222.8z M305,248.5c0.7,0,1.2-0.6,1.2-1.2c0-0.7-0.6-1.2-1.2-1.2s-1.2,0.6-1.2,1.2
			C303.8,248,304.3,248.5,305,248.5z M289.6,282.2c0-0.7-0.6-1.2-1.2-1.2c-0.7,0-1.2,0.6-1.2,1.2c0,0.7,0.6,1.2,1.2,1.2
			C289.1,283.4,289.6,282.9,289.6,282.2z M287.4,202.5c0-0.7-0.6-1.2-1.2-1.2c-0.7,0-1.2,0.6-1.2,1.2s0.6,1.2,1.2,1.2
			C286.8,203.8,287.4,203.2,287.4,202.5z M341.1,234.9c0-0.7-0.6-1.2-1.2-1.2c-0.7,0-1.2,0.6-1.2,1.2c0,0.7,0.6,1.2,1.2,1.2
			C340.5,236.1,341.1,235.6,341.1,234.9z M379.7,239.5c-0.7,0-1.2,0.6-1.2,1.2c0,0.7,0.6,1.2,1.2,1.2c0.7,0,1.2-0.6,1.2-1.2
			C380.9,240,380.4,239.5,379.7,239.5z M414.4,219.8c-0.7,0-1.2,0.6-1.2,1.2s0.6,1.2,1.2,1.2s1.2-0.6,1.2-1.2S415,219.8,414.4,219.8
			z M323.1,239.5c0-0.7-0.6-1.2-1.2-1.2s-1.2,0.6-1.2,1.2c0,0.7,0.6,1.2,1.2,1.2C322.7,240.7,323.1,240.2,323.1,239.5z M287.3,307
			c-0.7,0-1.2,0.6-1.2,1.2c0,0.7,0.6,1.2,1.2,1.2c0.7,0,1.2-0.6,1.2-1.2C288.5,307.5,288,307,287.3,307z M431.1,208.8
			c-0.7,0-1.2,0.6-1.2,1.2c0,0.7,0.6,1.2,1.2,1.2c0.7,0,1.2-0.6,1.2-1.2C432.4,209.4,431.8,208.8,431.1,208.8z M456,194.4
			c-0.7,0-1.2,0.6-1.2,1.2c0,0.7,0.6,1.2,1.2,1.2c0.7,0,1.2-0.6,1.2-1.2C457.2,195,456.6,194.4,456,194.4z M483.6,202
			c0,0.7,0.6,1.2,1.2,1.2c0.7,0,1.2-0.6,1.2-1.2c0-0.7-0.6-1.2-1.2-1.2C484.2,200.8,483.6,201.4,483.6,202z M564.5,206.1
			c0,0.7,0.6,1.2,1.2,1.2c0.7,0,1.2-0.6,1.2-1.2c0-0.7-0.6-1.2-1.2-1.2C565.1,204.9,564.5,205.4,564.5,206.1z M583.6,227.4
			c-0.7,0-1.2,0.6-1.2,1.2c0,0.7,0.6,1.2,1.2,1.2s1.2-0.6,1.2-1.2C584.8,227.9,584.3,227.4,583.6,227.4z M614.2,220.5
			c0,0.7,0.6,1.2,1.2,1.2c0.7,0,1.2-0.6,1.2-1.2c0-0.7-0.6-1.2-1.2-1.2C614.7,219.3,614.2,219.8,614.2,220.5z M446.7,195.7
			c-0.7,0-1.2,0.6-1.2,1.2c0,0.7,0.6,1.2,1.2,1.2c0.7,0,1.2-0.6,1.2-1.2C448,196.1,447.4,195.7,446.7,195.7z M417.3,202.5
			c-0.7,0-1.2,0.6-1.2,1.2s0.6,1.2,1.2,1.2s1.2-0.6,1.2-1.2C418.5,203.1,418,202.5,417.3,202.5z M303.6,220.5c0-0.7-0.6-1.2-1.2-1.2
			c-0.7,0-1.2,0.6-1.2,1.2c0,0.7,0.6,1.2,1.2,1.2C303,221.7,303.6,221.2,303.6,220.5z M312.8,234.9c0-0.7-0.6-1.2-1.2-1.2
			c-0.7,0-1.2,0.6-1.2,1.2c0,0.7,0.6,1.2,1.2,1.2C312.3,236.1,312.8,235.6,312.8,234.9z M442.1,206c-0.7,0-1.2,0.6-1.2,1.2
			s0.6,1.2,1.2,1.2c0.7,0,1.2-0.6,1.2-1.2S442.8,206,442.1,206z M567.4,225.1c-0.7,0-1.2,0.6-1.2,1.2c0,0.7,0.6,1.2,1.2,1.2
			s1.2-0.6,1.2-1.2C568.7,225.6,568.1,225.1,567.4,225.1z M624.5,213.5c0,1,0.8,1.8,1.8,1.8c1,0,1.8-0.8,1.8-1.8
			c0-1-0.8-1.8-1.8-1.8C625.4,211.8,624.5,212.5,624.5,213.5z M485.5,214.2c1,0,1.8-0.8,1.8-1.8c0-1-0.8-1.8-1.8-1.8
			c-1,0-1.8,0.8-1.8,1.8C483.7,213.4,484.5,214.2,485.5,214.2z M316.8,243.5c0-1-0.8-1.8-1.8-1.8c-1,0-1.8,0.8-1.8,1.8
			c0,1,0.8,1.8,1.8,1.8S316.8,244.6,316.8,243.5z M318,197.9c0-1-0.8-1.8-1.8-1.8c-1,0-1.8,0.8-1.8,1.8c0,1,0.8,1.8,1.8,1.8
			C317.2,199.7,318,199,318,197.9z M332.5,239.5c0-1-0.8-1.8-1.8-1.8c-1,0-1.8,0.8-1.8,1.8c0,1,0.8,1.8,1.8,1.8
			S332.5,240.5,332.5,239.5z M391.8,226.3c1,0,1.8-0.8,1.8-1.8c0-1-0.8-1.8-1.8-1.8c-1,0-1.8,0.8-1.8,1.8
			C390,225.5,390.9,226.3,391.8,226.3z M354.5,243.4c0-1-0.8-1.8-1.8-1.8c-1,0-1.8,0.8-1.8,1.8c0,1,0.8,1.8,1.8,1.8
			C353.6,245.1,354.5,244.4,354.5,243.4z M362.6,210.9c1,0,1.8-0.8,1.8-1.8c0-1-0.8-1.8-1.8-1.8c-1,0-1.8,0.8-1.8,1.8
			C360.9,210.1,361.6,210.9,362.6,210.9z M313.3,221.1c0-1-0.8-1.8-1.8-1.8c-1,0-1.8,0.8-1.8,1.8c0,1,0.8,1.8,1.8,1.8
			C312.4,222.9,313.3,222,313.3,221.1z M289,231.4c0-1-0.8-1.8-1.8-1.8c-1,0-1.8,0.8-1.8,1.8c0,1,0.8,1.8,1.8,1.8
			S289,232.4,289,231.4z M379.5,229.2c0-1-0.8-1.8-1.8-1.8c-1,0-1.8,0.8-1.8,1.8c0,1,0.8,1.8,1.8,1.8S379.5,230.1,379.5,229.2z
			 M367.2,272.2c0-1-0.8-1.8-1.8-1.8c-1,0-1.8,0.8-1.8,1.8c0,1,0.8,1.8,1.8,1.8S367.2,273.2,367.2,272.2z M339.4,260.7
			c0-0.9-0.8-1.8-1.8-1.8s-1.8,0.8-1.8,1.8c0,1,0.8,1.8,1.8,1.8S339.4,261.7,339.4,260.7z M324.4,250.3c0-1-0.8-1.8-1.8-1.8
			c-1,0-1.8,0.8-1.8,1.8c0,1,0.8,1.8,1.8,1.8C323.6,252.1,324.4,251.3,324.4,250.3z M380.6,191.4c0-0.4-0.3-0.7-0.7-0.7
			c-0.4,0-0.7,0.3-0.7,0.7c0,0.4,0.3,0.7,0.7,0.7C380.3,192.1,380.6,191.7,380.6,191.4z M362.2,179.8c0-0.4-0.3-0.7-0.7-0.7
			s-0.7,0.3-0.7,0.7c0,0.4,0.3,0.7,0.7,0.7C361.9,180.4,362.2,180.1,362.2,179.8z M359.4,256.7c0-0.4-0.3-0.7-0.7-0.7
			s-0.7,0.3-0.7,0.7c0,0.4,0.3,0.7,0.7,0.7C359.2,257.4,359.4,257.1,359.4,256.7z M357.2,235.9c0-0.4-0.3-0.7-0.7-0.7
			c-0.4,0-0.7,0.3-0.7,0.7c0,0.4,0.3,0.7,0.7,0.7C356.8,236.6,357.2,236.3,357.2,235.9z M345.2,240.2c0-0.4-0.3-0.7-0.7-0.7
			c-0.4,0-0.7,0.3-0.7,0.7c0,0.4,0.3,0.7,0.7,0.7C344.9,240.8,345.2,240.5,345.2,240.2z M327.1,244.4c0-0.4-0.3-0.7-0.7-0.7
			c-0.4,0-0.7,0.3-0.7,0.7c0,0.4,0.3,0.7,0.7,0.7S327.1,244.8,327.1,244.4z M352.2,205.4c0.4,0,0.7-0.3,0.7-0.7
			c0-0.4-0.3-0.7-0.7-0.7c-0.4,0-0.7,0.3-0.7,0.7C351.5,205.2,351.8,205.4,352.2,205.4z M302.1,210.9c0-0.4-0.3-0.7-0.7-0.7
			s-0.7,0.3-0.7,0.7c0,0.4,0.3,0.7,0.7,0.7S302.1,211.3,302.1,210.9z M288.6,210.9c0-0.4-0.3-0.7-0.7-0.7s-0.7,0.3-0.7,0.7
			c0,0.4,0.3,0.7,0.7,0.7S288.6,211.3,288.6,210.9z M309.8,237.5c0-0.4-0.3-0.7-0.7-0.7s-0.7,0.3-0.7,0.7c0,0.4,0.3,0.7,0.7,0.7
			S309.8,237.9,309.8,237.5z M304.8,252.9c0-0.4-0.3-0.7-0.7-0.7s-0.7,0.3-0.7,0.7c0,0.4,0.3,0.7,0.7,0.7S304.8,253.2,304.8,252.9z
			 M307.1,265.6c0-0.4-0.3-0.7-0.7-0.7s-0.7,0.3-0.7,0.7s0.3,0.7,0.7,0.7C306.8,266.3,307.1,265.9,307.1,265.6z M330.2,249
			c0-0.4-0.3-0.7-0.7-0.7c-0.4,0-0.7,0.3-0.7,0.7c0,0.4,0.3,0.7,0.7,0.7C329.9,249.8,330.2,249.4,330.2,249z M316.9,237.1
			c0,0.4,0.3,0.7,0.7,0.7c0.4,0,0.7-0.3,0.7-0.7c0-0.4-0.3-0.7-0.7-0.7S316.9,236.8,316.9,237.1z M300.2,214.8
			c0-0.4-0.3-0.7-0.7-0.7s-0.7,0.3-0.7,0.7s0.3,0.7,0.7,0.7S300.2,215.1,300.2,214.8z M292.2,246.7c0.4,0,0.7-0.3,0.7-0.7
			c0-0.4-0.3-0.7-0.7-0.7c-0.4,0-0.7,0.3-0.7,0.7C291.5,246.4,291.8,246.7,292.2,246.7z M344.5,216.4c0-0.4-0.3-0.7-0.7-0.7
			c-0.4,0-0.7,0.3-0.7,0.7c0,0.4,0.3,0.7,0.7,0.7C344.1,217,344.5,216.6,344.5,216.4z M367.6,212.4c0.4,0,0.7-0.3,0.7-0.7
			c0-0.4-0.3-0.7-0.7-0.7s-0.7,0.3-0.7,0.7C367,212,367.3,212.4,367.6,212.4z M371.5,202.7c0.4,0,0.7-0.3,0.7-0.7s-0.3-0.7-0.7-0.7
			c-0.4,0-0.7,0.3-0.7,0.7S371.1,202.7,371.5,202.7z M372.9,231.7c0-0.4-0.3-0.7-0.7-0.7s-0.7,0.3-0.7,0.7c0,0.4,0.3,0.7,0.7,0.7
			C372.6,232.4,372.9,232.1,372.9,231.7z M376.6,257.1c0,0.4,0.3,0.7,0.7,0.7s0.7-0.3,0.7-0.7c0-0.4-0.3-0.7-0.7-0.7
			C376.9,256.4,376.6,256.7,376.6,257.1z M403.4,244.4c0-0.4-0.3-0.7-0.7-0.7c-0.4,0-0.7,0.3-0.7,0.7c0,0.4,0.3,0.7,0.7,0.7
			C403,245.1,403.4,244.8,403.4,244.4z M404.6,273c-0.4,0-0.7,0.3-0.7,0.7c0,0.4,0.3,0.7,0.7,0.7c0.4,0,0.7-0.3,0.7-0.7
			S405,273,404.6,273z M359.8,230.9c0-0.4-0.3-0.7-0.7-0.7c-0.4,0-0.7,0.3-0.7,0.7c0,0.4,0.3,0.7,0.7,0.7S359.8,231.3,359.8,230.9z
			 M372.2,216.5c-0.4,0-0.7,0.3-0.7,0.7c0,0.4,0.3,0.7,0.7,0.7c0.4,0,0.7-0.3,0.7-0.7C372.9,216.7,372.6,216.5,372.2,216.5z
			 M399.2,196.2c0.4,0,0.7-0.3,0.7-0.7c0-0.4-0.3-0.7-0.7-0.7c-0.4,0-0.7,0.3-0.7,0.7C398.6,195.9,398.9,196.2,399.2,196.2z
			 M413.8,230.7c-0.4,0-0.7,0.3-0.7,0.7s0.3,0.7,0.7,0.7c0.4,0,0.7-0.3,0.7-0.7C414.5,230.9,414.2,230.7,413.8,230.7z M426.8,177.8
			c0-0.4-0.3-0.7-0.7-0.7s-0.7,0.3-0.7,0.7c0,0.4,0.3,0.7,0.7,0.7C426.5,178.5,426.8,178.2,426.8,177.8z M401.4,177.4
			c0-0.4-0.3-0.7-0.7-0.7s-0.7,0.3-0.7,0.7c0,0.4,0.3,0.7,0.7,0.7C401.1,178.1,401.4,177.8,401.4,177.4z M319,233.3
			c0-0.4-0.3-0.7-0.7-0.7c-0.4,0-0.7,0.3-0.7,0.7c0,0.4,0.3,0.7,0.7,0.7C318.7,234,319,233.7,319,233.3z M301.5,241.4
			c0,0.4,0.3,0.7,0.7,0.7c0.4,0,0.7-0.3,0.7-0.7c0-0.4-0.3-0.7-0.7-0.7C301.8,240.6,301.5,241,301.5,241.4z M287.7,244.4
			c0,0.4,0.3,0.7,0.7,0.7s0.7-0.3,0.7-0.7c0-0.4-0.3-0.7-0.7-0.7C288,243.7,287.7,244,287.7,244.4z M287.5,257.5
			c0-0.4-0.3-0.7-0.7-0.7c-0.4,0-0.7,0.3-0.7,0.7c0,0.4,0.3,0.7,0.7,0.7C287.2,258.2,287.5,257.8,287.5,257.5z M347.1,235.9
			c0-0.4-0.3-0.7-0.7-0.7s-0.7,0.3-0.7,0.7c0,0.4,0.3,0.7,0.7,0.7C346.8,236.6,347.1,236.3,347.1,235.9z M396.9,204.7
			c0.4,0,0.7-0.3,0.7-0.7s-0.3-0.7-0.7-0.7c-0.4,0-0.7,0.3-0.7,0.7S396.5,204.7,396.9,204.7z M459.4,203.6c0,0.4,0.3,0.7,0.7,0.7
			c0.4,0,0.7-0.3,0.7-0.7c0-0.4-0.3-0.7-0.7-0.7S459.4,203.2,459.4,203.6z M491.7,196.3c0,0.4,0.3,0.7,0.7,0.7
			c0.4,0,0.7-0.3,0.7-0.7c0-0.4-0.3-0.7-0.7-0.7S491.7,195.9,491.7,196.3z M517.1,193.6c0,0.4,0.3,0.7,0.7,0.7s0.7-0.3,0.7-0.7
			c0-0.4-0.3-0.7-0.7-0.7C517.4,192.9,517.1,193.2,517.1,193.6z M456.1,176.3c0-0.4-0.3-0.7-0.7-0.7c-0.4,0-0.7,0.3-0.7,0.7
			c0,0.4,0.3,0.7,0.7,0.7C455.8,176.9,456.1,176.7,456.1,176.3z M354.1,169.7c0-0.4-0.3-0.7-0.7-0.7c-0.4,0-0.7,0.3-0.7,0.7
			c0,0.4,0.3,0.7,0.7,0.7C353.8,170.5,354.1,170.1,354.1,169.7z M321.4,170.5c0.4,0,0.7-0.3,0.7-0.7c0-0.4-0.3-0.7-0.7-0.7
			c-0.4,0-0.7,0.3-0.7,0.7C320.8,170.1,321.1,170.5,321.4,170.5z M306.7,179.8c0-0.4-0.3-0.7-0.7-0.7s-0.7,0.3-0.7,0.7
			c0,0.4,0.3,0.7,0.7,0.7S306.7,180.1,306.7,179.8z M302.4,162c0-0.4-0.3-0.7-0.7-0.7c-0.4,0-0.7,0.3-0.7,0.7c0,0.4,0.3,0.7,0.7,0.7
			C302.2,162.7,302.4,162.4,302.4,162z M344.6,203.1c0.4,0,0.7-0.3,0.7-0.7c0-0.4-0.3-0.7-0.7-0.7c-0.4,0-0.7,0.3-0.7,0.7
			C343.8,202.8,344.2,203.1,344.6,203.1z M335.9,171.7c0-0.4-0.3-0.7-0.7-0.7c-0.4,0-0.7,0.3-0.7,0.7c0,0.4,0.3,0.7,0.7,0.7
			C335.6,172.3,335.9,172.1,335.9,171.7z M337.2,207c0.4,0,0.7-0.3,0.7-0.7c0-0.4-0.3-0.7-0.7-0.7c-0.4,0-0.7,0.3-0.7,0.7
			C336.6,206.7,336.9,207,337.2,207z M310.6,187.2c-0.4,0-0.7,0.3-0.7,0.7c0,0.4,0.3,0.7,0.7,0.7s0.7-0.3,0.7-0.7
			C311.4,187.5,311,187.2,310.6,187.2z M294.1,210.1c0.4,0,0.7-0.3,0.7-0.7s-0.3-0.7-0.7-0.7s-0.7,0.3-0.7,0.7
			S293.7,210.1,294.1,210.1z M378.5,250.5c0.4,0,0.7-0.3,0.7-0.7c0-0.4-0.3-0.7-0.7-0.7c-0.4,0-0.7,0.3-0.7,0.7
			C377.7,250.2,378.1,250.5,378.5,250.5z M422.7,231.4c-0.4,0-0.7,0.3-0.7,0.7c0,0.4,0.3,0.7,0.7,0.7c0.4,0,0.7-0.3,0.7-0.7
			C423.3,231.7,423,231.4,422.7,231.4z M529.8,195.6c0,0.4,0.3,0.7,0.7,0.7c0.4,0,0.7-0.3,0.7-0.7c0-0.4-0.3-0.7-0.7-0.7
			C530.1,194.9,529.8,195.2,529.8,195.6z M539.8,207.4c0,0.4,0.3,0.7,0.7,0.7c0.4,0,0.7-0.3,0.7-0.7s-0.3-0.7-0.7-0.7
			C540.2,206.8,539.8,207,539.8,207.4z M524.7,224.1c-0.4,0-0.7,0.3-0.7,0.7s0.3,0.7,0.7,0.7s0.7-0.3,0.7-0.7
			C525.4,224.5,525.1,224.1,524.7,224.1z M505.4,222.6c-0.4,0-0.7,0.3-0.7,0.7c0,0.4,0.3,0.7,0.7,0.7c0.4,0,0.7-0.3,0.7-0.7
			C506.1,222.9,505.8,222.6,505.4,222.6z M519.4,199.3c0,0.4,0.3,0.7,0.7,0.7s0.7-0.3,0.7-0.7c0-0.4-0.3-0.7-0.7-0.7
			C519.7,198.7,519.4,199,519.4,199.3z M544.8,238.4c-0.4,0-0.7,0.3-0.7,0.7c0,0.4,0.3,0.7,0.7,0.7c0.4,0,0.7-0.3,0.7-0.7
			C545.4,238.7,545.1,238.4,544.8,238.4z M576.8,195.6c0,0.4,0.3,0.7,0.7,0.7c0.4,0,0.7-0.3,0.7-0.7c0-0.4-0.3-0.7-0.7-0.7
			C577,194.8,576.8,195.2,576.8,195.6z M574.7,243.6c0-0.4-0.3-0.7-0.7-0.7s-0.7,0.3-0.7,0.7c0,0.4,0.3,0.7,0.7,0.7
			S574.7,244,574.7,243.6z M583.6,221.8c-0.4,0-0.7,0.3-0.7,0.7c0,0.4,0.3,0.7,0.7,0.7c0.4,0,0.7-0.3,0.7-0.7
			C584.3,222.1,584,221.8,583.6,221.8z M598.7,222.5c0,0.4,0.3,0.7,0.7,0.7c0.4,0,0.7-0.3,0.7-0.7c0-0.4-0.3-0.7-0.7-0.7
			C599,221.8,598.7,222.1,598.7,222.5z M610.1,222.6c-0.4,0-0.7,0.3-0.7,0.7c0,0.4,0.3,0.7,0.7,0.7s0.7-0.3,0.7-0.7
			C610.8,222.9,610.5,222.6,610.1,222.6z M565.2,220.1c0,0.4,0.3,0.7,0.7,0.7c0.4,0,0.7-0.3,0.7-0.7s-0.3-0.7-0.7-0.7
			C565.6,219.5,565.2,219.7,565.2,220.1z M500.5,239.5c-0.4,0-0.7,0.3-0.7,0.7c0,0.4,0.3,0.7,0.7,0.7c0.4,0,0.7-0.3,0.7-0.7
			C501.1,239.8,500.8,239.5,500.5,239.5z M470.5,185.1c0,0.4,0.3,0.7,0.7,0.7c0.4,0,0.7-0.3,0.7-0.7c0-0.4-0.3-0.7-0.7-0.7
			S470.5,184.8,470.5,185.1z M411.6,187.4c0.4,0,0.7-0.3,0.7-0.7s-0.3-0.7-0.7-0.7c-0.4,0-0.7,0.3-0.7,0.7
			C410.8,187,411.2,187.4,411.6,187.4z M480.8,215.4c0.4,0,0.7-0.3,0.7-0.7s-0.3-0.7-0.7-0.7c-0.4,0-0.7,0.3-0.7,0.7
			C480.1,215.1,480.4,215.4,480.8,215.4z M511.7,231c-0.4,0-0.7,0.3-0.7,0.7c0,0.4,0.3,0.7,0.7,0.7c0.4,0,0.7-0.3,0.7-0.7
			C512.3,231.3,512,231,511.7,231z M567.1,237c0.4,0,0.7-0.3,0.7-0.7c0-0.4-0.3-0.7-0.7-0.7c-0.4,0-0.7,0.3-0.7,0.7
			C566.4,236.7,566.7,237,567.1,237z M583.7,204.8c0,0.4,0.3,0.7,0.7,0.7s0.7-0.3,0.7-0.7c0-0.4-0.3-0.7-0.7-0.7
			S583.7,204.4,583.7,204.8z M616.8,225.9c4.5,0.2,9,0.3,13.5,0.4v0.8c-4.5,0-9-0.2-13.5-0.3c-0.1,0.2-0.3,0.3-0.6,0.3
			s-0.5-0.1-0.6-0.4c-4.1-0.2-8.2-0.4-12.3-0.6c-0.9-0.1-2-0.1-2.9-0.2c0,0.2,0.1,0.3,0.1,0.5c0,0.3-0.1,0.5-0.2,0.8
			c0.2-0.1,0.5-0.2,0.7-0.3c-0.2,0.1-0.5,0.2-0.7,0.3c-0.3,0.6-0.8,1-1.6,1c-0.3,0-0.5-0.1-0.7-0.1c-3.5,1.3-6.9,2.6-10.3,3.9
			c3,0.7,6,1.4,9,2.2c0-0.4,0.3-0.7,0.7-0.7c0.4,0,0.7,0.3,0.7,0.7c0,0.1,0,0.2-0.1,0.3c1.4,0.4,2.7,0.8,4.1,1.1
			c9.3,2.9,18.6,5.5,28.2,6.9v1.5c-11.2-1.5-22.1-4.7-32.7-7.6c-4.6-1.1-9.1-2.1-13.7-3c-13,4.3-26.2,7.8-39.7,9.9
			c-19.7,2.8-39.6,1.7-59.3-0.8c-11.6-1.4-23.1-3.3-34.7-5c-2.5,0.6-5.1,1.2-7.6,1.9c5.2,0.5,10.3,1.1,15.4,2
			c8.7,1.6,17.4,3.9,25.8,6.9c8.3,3.2,16.7,5.9,25.6,6.7c17.6,1.8,35.6-1.6,51.8-8.7c-16.7,7.5-35.3,11.3-53.7,9.2
			c-9.2-0.8-18.1-4-26.6-7.1c-8.6-2.7-17.4-4.7-26.3-6.1c-0.1,0.3-0.3,0.6-0.7,0.6c-0.4,0-0.7-0.3-0.7-0.7v-0.1
			c-5.1-0.8-10.2-1.3-15.3-1.6c-8.8,2.4-17.7,5.3-26.4,8.2c0,0.1,0,0.1,0,0.2c0,1-0.8,1.8-1.8,1.8c-0.7,0-1.2-0.4-1.5-0.8
			c-9.4,3.3-18.9,7.1-28.5,10.5c9.2,1.3,18.3,3.9,27.4,6.8c8.7-0.9,17.8-1.1,26.9-0.4c23.1,1.8,46.3,8,69.3,14
			c6.7-0.8,13.4-1.8,20-2.5c-6.7,0.8-13.3,1.8-19.8,2.6c6.2,1.6,12.4,3.2,18.6,4.7c12.7,3,25.4,5.7,38.1,7.1
			c12.7,1.2,25.2,1,37.5-0.1c11-1,21.8-2.7,32.5-4.7v0.1c-11.5,2.2-23.1,4-35,5c-12.7,1-25.8,1.1-38.9-0.5
			c-13.2-1.6-26.2-4.5-39.4-7.8c-4.8-1.2-9.7-2.4-14.5-3.8c-8.4,1-16.8,2-25.5,2.1c-7.8,0.1-15.8-0.4-23.8-1.9s-15.9-3.9-23.8-6.4
			c-7.3-2.4-14.8-5-22.2-7.2c-18.8,2-36.8,7.2-54.3,13c0.1,0.3,0.2,0.6,0.2,0.8c0,1.4-1.1,2.5-2.5,2.5c-1.1,0-2.1-0.8-2.4-1.8
			c-12.9,4.2-25.7,8.6-38.9,11.9c-8.2,2.1-16.8,3.2-25.6,3.4V297c22.7-0.8,43.6-8.7,64.3-15.5c0-0.1,0-0.3,0-0.4
			c0-1.4,1.1-2.5,2.5-2.5c0.9,0,1.8,0.6,2.3,1.3c17.2-5.6,35-10.9,53.6-13c-9-2.8-18.2-5.3-27.3-6.7c-5.8,2.1-11.7,4-17.7,5.6
			c-25.2,7.2-51.5,11.9-77.7,12.2v-2.4c5-0.1,10-0.3,14.9-0.7c-0.2-0.2-0.3-0.5-0.3-0.8c0-0.8,0.6-1.3,1.3-1.3
			c0.8,0,1.3,0.6,1.3,1.3c0,0.2-0.1,0.5-0.2,0.6c1.8-0.2,3.7-0.3,5.5-0.5c-0.1-0.2-0.2-0.5-0.2-0.7c0-0.7,0.6-1.2,1.2-1.2
			c0.7,0,1.2,0.6,1.2,1.2c0,0.2,0,0.3-0.1,0.5c2-0.2,4-0.5,6-0.8v-0.1c0-0.8,0.7-1.6,1.6-1.6c0.8,0,1.4,0.6,1.5,1.2
			c2.4-0.4,4.7-0.7,7-1.1c-0.7-0.3-1.1-0.9-1.1-1.7c0-1,0.8-1.8,1.8-1.8c1,0,1.8,0.8,1.8,1.8c0,0.6-0.3,1-0.7,1.3
			c8.7-1.5,17.2-3.4,25.7-5.6c-0.3-0.4-0.5-0.9-0.5-1.5c0-1.4,1.1-2.5,2.5-2.5s2.5,1.1,2.5,2.5c0,0.1,0,0.2,0,0.3
			c2.3-0.7,4.5-1.2,6.8-1.9c3.2-0.9,6.5-2,9.7-3c-16.3-1.2-31.7,2.4-46.8,6.2c-8.1,2.1-16.3,4.2-24.6,5.7
			c-5.8,1.1-11.9,1.3-18.2,0.9v-0.1c15.4,1,29.8-3.6,44-7.1c14.7-3.8,29.9-7.2,45.9-5.8c4.5-1.5,9-3.1,13.5-4.7
			c7.7-2.9,15.5-6.2,23.5-8.7c6.2-2.1,12.5-4.1,18.9-6c-11.9-0.3-24,0.6-35.8,2.3c-10,1.4-19.8,3.8-29.5,6.4
			c-9.6,2.6-19.3,6.1-29.3,8.1c-5.8,1.2-11.8,2.3-17.7,3c-0.4,0.9-1.3,1.6-2.4,1.6c-0.8,0-1.6-0.5-2.1-1.1c-3.7,0.4-7.3,0.7-11,0.8
			c-0.3,0.1-0.5,0.1-0.8,0.1c-0.2,0-0.4,0-0.6-0.1c-2.4,0.1-4.7,0.1-7.1,0.1c-1.6,0.3-3.3,0.5-4.9,0.8c-1.6,0.2-3.2,0.4-4.8,0.6
			v-0.8c1.6-0.2,3.2-0.4,4.8-0.6c-1.6-0.1-3.2-0.2-4.8-0.3v-1.6c4.7,0.4,9.4,0.5,14.1,0.4c0.3-0.1,0.6-0.1,0.9-0.2
			c-0.1-0.3-0.2-0.6-0.2-0.8c0-1.4,1.1-2.5,2.5-2.5c1.4,0,2.4,1.1,2.5,2.4c12.6-2.4,25-5.6,37.3-9.2v-0.1c0-1.4,1.1-2.5,2.5-2.5
			c0.9,0,1.8,0.5,2.2,1.3c4-1.2,8.1-2.4,12.1-3.7c0.3-1,1.2-1.9,2.4-1.9c0.7,0,1.2,0.2,1.6,0.6c1.8-0.6,3.6-1.1,5.4-1.7
			c0-0.1,0-0.1,0-0.2c0-1,0.8-1.8,1.8-1.8c0.7,0,1.3,0.4,1.6,0.9c3.5-1.1,7.1-2.2,10.5-3.3c-0.7-0.3-1-0.9-1-1.6
			c0-0.6,0.3-1,0.7-1.4c-6.1,0.8-12.2,1.9-18.3,3.2c0.4,0.3,0.6,0.7,0.6,1.1c0,0.8-0.7,1.4-1.4,1.4c-0.8,0-1.4-0.7-1.4-1.4
			c0-0.3,0.1-0.5,0.2-0.7c-1.9,0.4-3.8,0.8-5.7,1.3c-13.8,3.2-27.7,6.9-41.7,9.4c0,0.1,0,0.2,0,0.4c0,1-0.8,1.8-1.8,1.8
			s-1.6-0.7-1.8-1.5c-4.8,0.8-9.5,1.5-14.4,2c0.1,0.1,0.1,0.2,0.1,0.4c0,0.4-0.3,0.7-0.7,0.7s-0.7-0.3-0.7-0.7c0-0.1,0-0.2,0.1-0.3
			c-1.2,0.1-2.4,0.2-3.6,0.3c-2.3,0.2-4.5,0.3-6.8,0.3v-0.4c1.9,0,3.8-0.1,5.6-0.2c-0.3-0.2-0.5-0.6-0.5-0.9c0-0.7,0.6-1.2,1.2-1.2
			c0.7,0,1.2,0.6,1.2,1.2c0,0.4-0.2,0.7-0.4,0.8c0.2,0,0.3,0,0.5,0c6.1-0.5,12.2-1.3,18.2-2.4c0.1-0.8,0.8-1.5,1.8-1.5
			c0.7,0,1.3,0.4,1.6,0.9c8.2-1.5,16.4-3.4,24.6-5.4c-1-0.3-1.8-1.2-1.8-2.4c0-1.4,1.1-2.5,2.5-2.5c1.4,0,2.5,1.1,2.5,2.5
			c0,0.7-0.3,1.3-0.8,1.8c5.5-1.3,11-2.6,16.5-3.9c3.1-0.8,6.1-1.5,9.2-2.1c-0.1-0.1-0.1-0.3-0.1-0.4c0-0.4,0.3-0.7,0.7-0.7
			c0.4,0,0.7,0.3,0.7,0.7c0,0.1,0,0.1,0,0.2c7.8-1.5,15.7-2.4,23.6-2.9c-0.4,0-0.7-0.3-0.7-0.7s0.3-0.7,0.7-0.7
			c0.4,0,0.7,0.3,0.7,0.7s-0.3,0.7-0.7,0.7c1.9-0.1,3.8-0.2,5.6-0.3c1.1-0.4,2.3-0.8,3.4-1c0-0.1-0.1-0.3-0.1-0.4
			c0-1,0.8-1.8,1.8-1.8c0.8,0,1.4,0.5,1.7,1.2c4.9-1.4,9.9-2.7,14.9-4c-2.9-0.4-5.9-0.8-8.8-1.3c-0.3,0.7-0.9,1.1-1.7,1.1
			c-0.9,0-1.7-0.8-1.8-1.6c-1.7-0.3-3.3-0.6-5-0.8c0.2,0.1,0.3,0.3,0.3,0.6c0,0.4-0.3,0.7-0.7,0.7s-0.7-0.3-0.7-0.7
			c0-0.3,0.2-0.6,0.6-0.7c-3.6-0.6-7.1-1.2-10.7-1.8c-2.1,0.4-4.2,0.8-6.3,1.2c1.1,0.3,2,1.2,2,2.4c0,1.4-1.1,2.5-2.5,2.5
			c-1.4,0-2.5-1.1-2.5-2.5c0-0.8,0.4-1.6,1-2.1c-9.6,2-19.1,4.1-28.8,5.9c0.9,0.4,1.7,1.3,1.7,2.4c0,1.4-1.1,2.5-2.5,2.5
			c-1.4,0-2.5-1.1-2.5-2.5c0-0.8,0.4-1.5,0.9-2c-5,0.8-10,1.5-15.1,2c0.5,0.3,0.8,0.8,0.8,1.4c0,1-0.8,1.8-1.8,1.8
			c-1,0-1.8-0.8-1.8-1.8c0-0.5,0.2-0.9,0.5-1.2c-1.2,0.1-2.4,0.2-3.6,0.2c-0.2,1.2-1.2,2.3-2.5,2.3c-1.2,0-2.3-0.9-2.4-2.1
			c-0.6,0-1.1,0-1.7,0c-4.4-0.1-8.8-0.3-13.3-0.7c-4.5,0.8-8.9,1.6-13.5,2.3c0,0.1,0,0.1,0,0.2c0,1-0.8,1.8-1.8,1.8
			c-0.8,0-1.6-0.7-1.8-1.5c-0.3,0-0.6,0.1-0.8,0.1c-2.4,0.4-4.8,0.7-7.2,0.9l0,0l0,0v-0.8c1.7-0.4,3.4-0.8,5.1-1.1
			c1.2-0.3,2.4-0.6,3.6-0.8c0.3-0.3,0.8-0.5,1.2-0.5c0.2,0,0.4,0,0.6,0.1c2.2-0.5,4.3-0.9,6.4-1.4c-2.2-0.2-4.4-0.5-6.6-0.8
			c-3.4-0.5-6.8-0.9-10.2-1.5v-1.5v-0.3V227v-0.2v-3.2c2.2,0.2,4.3,0.3,6.6,0.5c0.3-0.5,0.8-0.8,1.5-0.8c0.7,0,1.3,0.4,1.6,0.9
			c4.1,0.2,8.3,0.3,12.3,0.5c3.4-0.4,6.8-0.8,10.3-1.3c-0.6-0.5-0.8-1.1-0.8-1.9c0-1.4,1.1-2.5,2.5-2.5c1.4,0,2.5,1.1,2.5,2.5
			c0,0.6-0.2,1-0.5,1.4c1.2-0.2,2.4-0.3,3.6-0.5c-0.4-0.3-0.7-0.8-0.7-1.4c0-1,0.8-1.8,1.8-1.8c1,0,1.8,0.8,1.8,1.8
			c0,0.4-0.1,0.8-0.4,1c3.2-0.5,6.3-0.8,9.5-1.3c-0.5-0.3-0.8-0.8-0.8-1.5c0-1,0.8-1.8,1.8-1.8c1,0,1.8,0.8,1.8,1.8
			c0,0.5-0.2,0.8-0.5,1.1c2.4-0.4,4.9-0.7,7.3-1c-0.1-0.2-0.2-0.5-0.2-0.8c0-1,0.8-1.8,1.8-1.8c1,0,1.8,0.8,1.8,1.8
			c0,0.1,0,0.2,0,0.2c0.8-0.2,1.5-0.4,2.3-0.6c0.2-0.5,0.6-0.8,1.1-0.8c0.3,0,0.6,0.1,0.8,0.3c2-0.5,3.9-1,5.8-1.5
			c-2.9-0.6-5.9-1.1-8.8-1.6c-6.3,0.1-12.5,0.4-18.8,0.7c-0.1,0.3-0.3,0.5-0.7,0.5c-0.3,0-0.6-0.2-0.7-0.4
			c-4.2,0.2-8.4,0.5-12.6,0.8c-0.1,0.3-0.4,0.5-0.7,0.5c-0.2,0-0.4-0.1-0.6-0.3c-10.6,2.1-21.4,4-32,5.9v-0.5c2.4-0.5,5-0.8,7.4-1.3
			c-1.2-0.2-2.1-1.2-2.1-2.5c0-0.1,0-0.2,0-0.3c-0.4,0-0.8,0-1.2,0.1c-1.4,0-2.7,0-4.1,0.1v-0.6c1.7,0,3.4-0.1,5.1-0.1
			c0.1,0,0.3,0,0.4,0c0.4-1,1.3-1.8,2.4-1.8c1,0,2,0.7,2.4,1.5c4.2-0.2,8.6-0.5,12.8-0.8c0.1-0.6,0.6-1.1,1.2-1.1
			c0.6,0,1,0.4,1.1,0.9c2.2-0.1,4.3-0.3,6.5-0.4c0.1-0.3,0.3-0.5,0.7-0.5c0.3,0,0.5,0.2,0.7,0.4h0.1c5.9-1.1,11.9-2.4,17.9-3.6
			c-4.8-0.8-9.6-1.6-14.4-2.4c-1-0.2-2.1-0.3-3.2-0.5c-0.2,0.8-0.8,1.4-1.8,1.4c-1,0-1.8-0.8-1.8-1.8v-0.1c-2.1-0.3-4.1-0.6-6.3-0.8
			c-0.3,0.4-0.8,0.7-1.2,0.7c-0.7,0-1.2-0.4-1.4-0.9c-4-0.5-7.9-0.9-11.9-1.3c-3.1,0.4-6.2,0.8-9.2,1v-0.8c1.4-0.2,2.8-0.3,4.2-0.5
			c-1.4,0-2.8-0.1-4.2-0.1v-0.3c2,0,4,0,5.9,0.1c7.2-0.8,14.6-1.8,21.8-2.7c0.2,0,0.3-0.1,0.5-0.1c0,0,0,0,0.1,0
			c5.4-0.7,10.8-1.4,16.2-2.2c0.5-0.6,1.2-1,2.1-1c0.6,0,1.1,0.2,1.6,0.6c1.8-0.2,3.5-0.5,5.3-0.7c0-0.1,0-0.2,0-0.3
			c0-1,0.8-1.8,1.8-1.8s1.7,0.8,1.8,1.7c2.6-0.4,5.3-0.7,7.9-0.9c0.1-0.5,0.5-0.8,0.9-0.8c0.4,0,0.8,0.3,0.8,0.6
			c3.3-0.4,6.5-0.8,9.8-1.1c-9-0.2-18.2-0.4-27.2-1.2c-8.4-0.5-16.7-1.3-25.1-2.4c0.1,0.2,0.2,0.4,0.2,0.7c0,0.7-0.6,1.2-1.2,1.2
			s-1.2-0.6-1.2-1.2c0-0.4,0.2-0.7,0.4-0.9c-7.4-1-14.9-2.4-22.3-3.9v-0.3c7.5,1.5,15.1,2.8,22.6,3.9c0.2-0.1,0.3-0.1,0.5-0.1
			c0.3,0,0.6,0.1,0.8,0.3c9,1.2,18.1,2.2,27.2,2.6c5.3,0.5,10.5,0.6,15.8,0.8c3.7,0.1,7.3,0.1,11,0.2c0.3-0.4,0.8-0.6,1.3-0.6
			c0.5,0,0.8,0.2,1.2,0.5c4-0.5,8.1-0.8,12.1-1.2c-3.7-0.4-7.3-0.8-11-1.2c-0.4,1-1.3,1.7-2.4,1.7c-1.3,0-2.4-0.9-2.5-2.3
			c-7.4-0.8-14.9-1.5-22.3-2.2c-0.2,1.1-1.2,2.1-2.4,2.1c-1.4,0-2.5-1.1-2.5-2.4c-0.1,0-0.1,0-0.2,0c-1.1-0.1-2.3-0.2-3.4-0.3
			c-0.2,0-0.3,0.1-0.5,0.1c-0.3,0-0.5-0.1-0.8-0.2c-2.2-0.2-4.2-0.3-6.4-0.5c0,0.1,0,0.1,0,0.2c0,1.4-1.1,2.5-2.5,2.5
			s-2.5-1.1-2.5-2.5c0-0.2,0-0.4,0.1-0.6c-10.3-0.8-20.5-1.3-30.7-1.4c-0.8,0-1.6,0-2.4,0v-0.4c1.5,0,2.9,0,4.4,0
			c9.6,0.2,19.2,0.8,28.8,1.4c0.4-0.9,1.3-1.5,2.4-1.5c1.2,0,2.2,0.8,2.4,1.9c2,0.2,3.9,0.3,5.8,0.5c-0.3-0.3-0.5-0.8-0.5-1.1
			c0-1,0.8-1.8,1.8-1.8c1,0,1.8,0.8,1.8,1.8c0,0.6-0.3,1-0.7,1.4c0.9,0.1,1.9,0.2,2.8,0.3c0.2-1.2,1.2-2.2,2.5-2.2
			c1.4,0,2.5,1.1,2.5,2.5v0.1c2.3,0.2,4.5,0.4,6.8,0.7c-0.4-0.3-0.6-0.8-0.6-1.3c0-1,0.8-1.8,1.8-1.8c1,0,1.8,0.8,1.8,1.8
			c0,0.7-0.4,1.2-0.8,1.5c4.4,0.4,8.8,0.8,13.3,1.3c0.1-1.3,1.1-2.4,2.5-2.4c1.4,0,2.5,1.1,2.5,2.5c0,0.1,0,0.3,0,0.4
			c2.4,0.3,4.9,0.6,7.3,0.8c-0.3-0.3-0.5-0.8-0.5-1.2c0-1,0.8-1.8,1.8-1.8c1,0,1.8,0.8,1.8,1.8c0,0.7-0.4,1.2-0.8,1.5
			c1.2,0.1,2.4,0.3,3.6,0.4c6.1-0.6,12.2-0.9,18.3-1.2c8.3-0.5,16.6-0.8,24.8-0.9c6.2-2,12.4-4,18.7-5.6h-0.1
			c-0.4,0-0.7-0.3-0.7-0.7c0-0.4,0.3-0.7,0.7-0.7s0.7,0.3,0.7,0.7c0,0.3-0.2,0.5-0.4,0.6c2.5-0.7,5.1-1.4,7.6-2
			c29.7-7.4,60.1-12,90.5-15.2c30.5-3,61.1-5.5,91.5-8.4v0.2c-32.2,3.1-64.5,5.7-96.7,9.2c-30,3.4-59.8,8-89.1,15.7
			c-7.2,1.7-14.3,4-21.4,6.2c9.6-0.3,19.2-0.5,28.8-0.7c2.8-0.6,5.7-1.1,8.6-1.7c17.8-3.9,35.2-9.2,51.9-16.4
			c0.6-0.2,1.2-0.4,1.8-0.7c-1.1,0.5-2.3,0.9-3.4,1.4c-17.3,7.2-35.5,12.7-53.8,16.6c-1.2,0.3-2.4,0.5-3.6,0.8
			c3.5-0.1,6.9-0.2,10.3-0.2c9.9-1.3,19.8-2.3,29.8-3c24.1-5.3,48.4-10.2,72.6-14.7c21.2-3,42.6-4.9,64-3.9v2c-23-0.7-46,2.2-68.7,6
			c-15.1,2.5-30.1,5.7-45.2,9c10.7-0.6,21.4-0.9,32.1-1.3c7-0.7,14-1.2,21.1-1.2c3.3-0.1,6.5-0.1,9.8-0.1c7.4-0.4,14.8-0.8,22.2-1.5
			c9.6-1,19.2-2.4,28.7-3.7v0.7c-11.5,1.7-23,3.3-34.6,4.3c-0.8,0.1-1.6,0.1-2.4,0.2c11.4,0,22.8,0.1,34.1-0.5c1,0,2-0.1,3-0.1v0.8
			c-3.2,0.1-6.3,0.3-9.5,0.4c-13.7,0.5-27.4,0.2-41.1,0.3c-10.4,0.6-20.9,1-31.3,1.4c-13.6,1.3-27.3,3.4-41,4
			c-2.9,0.2-5.8,0.4-8.7,0.5c-8.8,2-17.7,3.9-26.5,5.6c-0.1,0-0.2,0-0.3,0.1c-0.3,0.5-0.8,0.8-1.3,0.8c-0.4,0-0.7-0.1-0.9-0.3
			c-5.7,1.1-11.4,2.4-17,3.9c-0.1,0.1-0.3,0.2-0.5,0.2c-0.1,0-0.2,0-0.3-0.1c-1.4,0.4-2.9,0.8-4.3,1.1c5.7,0.7,11.5,1.2,17.2,1.8
			c-0.7-0.3-1.1-0.9-1.1-1.7c0-1,0.8-1.8,1.8-1.8c1,0,1.8,0.8,1.8,1.8c0,0.8-0.6,1.5-1.2,1.7c8.5-0.2,16.9-0.4,25.5-0.6
			c0.3-0.5,0.8-0.8,1.5-0.8c0.6,0,1.1,0.3,1.5,0.8c5-0.1,10-0.3,15-0.4c-0.3-0.2-0.5-0.6-0.5-0.9c0-0.7,0.6-1.2,1.2-1.2
			c0.7,0,1.2,0.6,1.2,1.2c0,0.4-0.2,0.7-0.4,0.9c7.7-0.3,15.4-0.6,23.1-0.9c0.1-0.1,0.3-0.2,0.5-0.2s0.3,0.1,0.5,0.2
			c3.4-0.2,6.8-0.4,10.3-0.7c-3.4,0.3-6.8,0.5-10.2,0.7c0.1,0.1,0.2,0.3,0.2,0.5c0,0.4-0.3,0.7-0.7,0.7c-0.4,0-0.7-0.3-0.7-0.7
			c0-0.2,0.1-0.3,0.2-0.5c-7.7,0.5-15.4,0.8-23.1,1c-0.2,0.2-0.5,0.2-0.8,0.2s-0.5-0.1-0.7-0.2c-5,0.2-10,0.3-15,0.5
			c0.2,0.3,0.3,0.6,0.3,0.9c0,1-0.8,1.8-1.8,1.8c-1,0-1.8-0.8-1.8-1.8c0-0.3,0.1-0.6,0.2-0.8c-8.1,0.2-16.3,0.4-24.4,0.6
			c2.3,0.2,4.5,0.4,6.8,0.7c0.3-0.2,0.6-0.3,0.9-0.3c0.5,0,0.8,0.2,1.2,0.5c7.8,0.7,15.6,1.3,23.4,1.8c-0.2-0.3-0.4-0.7-0.4-1
			c0-0.9,0.8-1.8,1.8-1.8c0.9,0,1.8,0.8,1.8,1.8c0,0.5-0.2,0.9-0.6,1.2c2.2,0.1,4.3,0.3,6.5,0.4c0.2-0.3,0.6-0.5,0.9-0.5
			c0.5,0,0.8,0.2,1,0.6c1.4,0.1,2.7,0.2,4.1,0.2c-0.2-0.3-0.4-0.6-0.4-0.9c0-0.8,0.7-1.6,1.6-1.6c0.8,0,1.6,0.7,1.6,1.6
			c0,0.4-0.2,0.8-0.4,1c2,0.1,4,0.2,5.9,0.3c-0.4-0.2-0.8-0.6-0.8-1.1c0-0.7,0.6-1.2,1.2-1.2s1.2,0.6,1.2,1.2c0,0.6-0.4,0.9-0.8,1.1
			c0.4,0,0.8,0,1,0c1.9,0.1,3.8,0.1,5.6,0.2c-0.1-0.3-0.2-0.6-0.2-0.8c0-1,0.8-1.8,1.8-1.8c0.9,0,1.8,0.8,1.8,1.8
			c0,0.4-0.1,0.7-0.3,0.9c4.5,0.1,8.9,0.2,13.5,0.2c0.4-0.9,1.3-1.6,2.4-1.6c1,0,2,0.7,2.4,1.6c18.3-0.1,36.7-1,54.9-3
			c8.1-0.8,16.1-1.9,24.1-3v0.2c-8.9,1.2-17.8,2.4-26.7,3.3c-17.3,1.8-34.7,2.7-52.1,2.9c0,0.2,0.1,0.4,0.1,0.6
			c0,1.4-1.1,2.5-2.5,2.5c-1.4,0-2.5-1.1-2.5-2.5c0-0.2,0-0.4,0.1-0.6c-4.5,0-9.1-0.1-13.6-0.2c-0.3,0.3-0.8,0.5-1.2,0.5
			s-0.9-0.2-1.2-0.6c-3.8-0.1-7.6-0.2-11.4-0.4c-1,0-2.1-0.1-3.1-0.2c-0.2,0.1-0.3,0.1-0.5,0.1s-0.5-0.1-0.7-0.1
			c-1.5-0.1-3-0.2-4.5-0.3c0,0.1,0,0.1,0,0.2c0,0.7-0.6,1.2-1.2,1.2c-0.7,0-1.2-0.6-1.2-1.2c0-0.1,0-0.2,0-0.3
			c-2.4-0.1-4.6-0.3-6.9-0.5c-0.2,0.1-0.4,0.1-0.6,0.1c-0.3,0-0.6-0.1-0.8-0.2c-7.9-0.6-15.8-1.1-23.6-1.9c0.2,0.3,0.3,0.6,0.3,0.9
			c0,0.6-0.3,1-0.7,1.3c6.9-0.3,13.7-0.2,20.5,0.3c0.1,0,0.2,0,0.2,0c0.1,0,0.3,0,0.4,0.1c5.6,0.4,11.3,1.1,16.8,2.2
			c3.3,0.7,6.6,1.3,9.9,2.1c0-0.1,0-0.1,0-0.2c0-1,0.8-1.8,1.8-1.8c1,0,1.8,0.8,1.8,1.8c0,0.2,0,0.4-0.1,0.6
			c4.9-0.2,9.7-0.3,14.6-0.2c7.6,0.1,15.2,0.4,22.8,0.8l0,0c0-0.7,0.6-1.2,1.2-1.2c0.7,0,1.2,0.6,1.2,1.2c0,0.1,0,0.1,0,0.2
			c10.3,0.6,20.6,1.3,30.9,2c-10.3-0.7-20.6-1.3-30.9-1.9c-0.1,0.6-0.7,0.9-1.2,0.9c-0.7,0-1.1-0.5-1.2-1
			c-8.2-0.4-16.5-0.7-24.6-0.7c-4.3-0.1-8.6,0-12.9,0.2c0,0,0,0.1-0.1,0.1c5.4,1.3,10.7,2.9,16,4.7c6.5,0,13.1,0,19.6-0.1
			c2.4,0,5,0,7.4,0c0.1-0.3,0.4-0.5,0.7-0.5c0.3,0,0.6,0.2,0.7,0.5c1.3,0,2.7,0,4,0c0.3-0.6,0.8-0.8,1.5-0.8c0.7,0,1.2,0.4,1.5,0.8
			c2,0,4-0.1,6-0.2c0.1-0.1,0.3-0.2,0.5-0.2c0.2,0,0.3,0.1,0.5,0.2c4.7-0.2,9.3-0.6,13.9-1.1c0-0.9,0.8-1.7,1.8-1.7
			c0.8,0,1.5,0.5,1.7,1.2c6.9-1.1,13.6-2.8,20.1-5.5c-6.5,2.7-13.3,4.4-20.1,5.6c0,0.2,0.1,0.3,0.1,0.5c0,1-0.8,1.8-1.8,1.8
			c-0.9,0-1.8-0.8-1.8-1.8c-4.6,0.6-9.2,0.9-13.8,1.2c0.1,0.1,0.1,0.2,0.1,0.4c0,0.4-0.3,0.7-0.7,0.7c-0.4,0-0.7-0.3-0.7-0.7
			c0-0.1,0-0.2,0.1-0.3c-2,0.1-3.9,0.2-5.8,0.2c0.1,0.2,0.2,0.5,0.2,0.8c0,1-0.8,1.8-1.8,1.8c-1,0-1.8-0.8-1.8-1.8
			c0-0.3,0.1-0.5,0.2-0.8c-1.3,0-2.6,0-3.9,0.1c0,0.4-0.3,0.7-0.7,0.7c-0.4,0-0.7-0.3-0.7-0.7c-3.2,0-6.3,0-9.4,0.1
			c-5.6,0.1-11,0.2-16.6,0.2c1,0.4,2.2,0.8,3.2,1.1c0.3-0.5,0.8-0.8,1.5-0.8c1,0,1.8,0.8,1.8,1.8c0,0.1,0,0.1,0,0.1
			c1.2,0.1,2.5,0.2,3.8,0.3c0.1-0.9,0.8-1.7,1.8-1.7c1,0,1.8,0.8,1.8,1.8c0,0.1,0,0.1,0,0.2c13.5,1.1,26.8,2.3,40.3,3.1
			c0.3-0.2,0.6-0.3,0.9-0.3c0.4,0,0.8,0.2,1,0.4c3.2,0.2,6.5,0.4,9.7,0.6c2.1,0.1,4.1,0.2,6.2,0.3c0.1-0.1,0.3-0.2,0.5-0.2
			C616.5,225.7,616.7,225.8,616.8,225.9z M408,267.3c8.3,2.6,16.5,5.6,24.6,8.1c7.6,2.4,15.3,4.6,23,5.9s15.4,1.7,23,1.5
			c8.1-0.2,16-1,23.8-2c-24-6.3-48.2-12.7-72.2-14.1C422.8,266.2,415.3,266.5,408,267.3z M553.2,222.3c0.5,0.2,0.8,0.3,1.3,0.5
			c-0.1-0.1-0.2-0.3-0.3-0.4C553.9,222.3,553.5,222.3,553.2,222.3z M532.3,218.1c0,0.1,0,0.2-0.1,0.4c3.1,0,6.2,0,9.3,0
			c-5.1-1.5-10.2-2.9-15.2-4c-0.3,0.2-0.6,0.2-0.8,0.2c-0.6,0-1.1-0.3-1.4-0.8c-0.1,0-0.1,0-0.2,0c-1.8,0.1-3.6,0.2-5.4,0.4
			c-0.3,0.8-0.9,1.2-1.7,1.2c-0.7,0-1.3-0.4-1.6-0.9c-4.7,0.4-9.3,0.8-14,1.1c-0.2,0.8-0.9,1.4-1.8,1.4c-0.8,0-1.4-0.5-1.7-1.1
			c-5.3,0.4-10.5,0.7-15.8,0.8c-0.5,0-1,0-1.5,0c7,0.5,13.9,0.9,20.9,1.1c3,0.1,6.1,0.2,9.1,0.3c-0.4-0.2-0.7-0.6-0.7-1.1
			c0-0.7,0.6-1.2,1.2-1.2c0.7,0,1.2,0.6,1.2,1.2c0,0.5-0.3,0.9-0.8,1.1c6.2,0.2,12.4,0.3,18.6,0.4c0-0.1,0-0.2,0-0.3
			c0-0.7,0.6-1.2,1.2-1.2C531.7,217,532.3,217.5,532.3,218.1z M522.5,213.7c-1.4-0.3-2.8-0.6-4.3-0.8c0.2,0.3,0.3,0.6,0.3,0.8
			c0,0.1,0,0.2,0,0.2C519.7,213.8,521.2,213.7,522.5,213.7z M461.3,211.6c-6.6,0.7-13.1,1.5-19.6,2.4v0.1c0,0.5-0.2,0.9-0.6,1.3
			c4,0.1,7.9,0.2,11.8,0.3c2.1-0.1,4.1-0.1,6.1-0.1c0.1-0.2,0.4-0.4,0.6-0.4c0.3,0,0.5,0.2,0.6,0.4c1.9,0,3.8,0.1,5.6,0.2
			c0.8,0,1.7,0.1,2.4,0.1c-0.6-0.1-0.9-0.7-0.9-1.2c0-0.7,0.6-1.2,1.2-1.2s1.2,0.6,1.2,1.2c0,0.7-0.5,1.1-1,1.2c1,0.1,2,0.1,3,0.2
			c4.5,0.1,9.1,0.1,13.6,0c4-0.2,8-0.4,11.9-0.7c0-0.1,0-0.1,0-0.2c0-1,0.8-1.8,1.8-1.8s1.8,0.8,1.8,1.8c4.6-0.4,9.2-0.8,13.8-1
			c0-0.2-0.1-0.3-0.1-0.5c0-0.6,0.3-1,0.7-1.4c-1.2-0.2-2.4-0.4-3.6-0.6c-4.7-0.8-9.5-1.2-14.3-1.5c-0.1,0.6-0.7,1-1.2,1
			c-0.7,0-1.1-0.5-1.2-1.1C483.9,209.7,472.5,210.3,461.3,211.6z M404.8,217.4c-0.2-0.3-0.3-0.7-0.3-1c-0.9,0-1.9-0.1-2.8-0.1
			c0.1,0.1,0.2,0.3,0.2,0.4c0,0.4-0.3,0.7-0.7,0.7c-0.4,0-0.7-0.3-0.7-0.7c0-0.2,0.1-0.3,0.2-0.4c-0.4,0-0.8,0.1-1,0.1
			c-0.2,0.1-0.4,0.1-0.7,0.2c0.6,0.4,1,0.9,1.2,1.6C401.7,218,403.2,217.7,404.8,217.4z M368.2,224.1L368.2,224.1v-0.2
			c-1.6,0.3-3.1,0.6-4.7,0.8c0,0.1,0.1,0.2,0.1,0.3C365.2,224.6,366.7,224.4,368.2,224.1z M356.6,226.4c1.5-0.4,3.1-0.7,4.6-0.9
			c0-0.1-0.1-0.2-0.1-0.4l0,0c-1.7,0.3-3.4,0.6-5.1,0.8C356.4,226.1,356.5,226.2,356.6,226.4z M308.6,229.2c1.5-0.4,2.9-0.8,4.4-1
			c-1.8,0-3.5-0.1-5.3-0.1C308.2,228.3,308.5,228.8,308.6,229.2z M331.9,224.3c0,0.1,0,0.2,0,0.3v0.1c1.2,0,2.5-0.1,3.8-0.2l0,0l0,0
			c1.3-0.1,2.7-0.1,4-0.2c0.8-0.1,1.6-0.1,2.4-0.2c0.2-0.6,0.7-0.9,1.3-0.9c0.6,0,1,0.3,1.2,0.8c1.1-0.1,2.3-0.2,3.3-0.4
			c0.1-0.1,0.3-0.2,0.5-0.2c0.1,0,0.2,0,0.3,0.1c1.5-0.2,2.9-0.4,4.4-0.6c0.9-0.2,1.9-0.4,2.8-0.5c4.4-0.7,8.8-1.5,13.3-2.4
			c-0.2-0.1-0.4-0.3-0.4-0.6c0-0.4,0.3-0.7,0.7-0.7c0.4,0,0.7,0.3,0.7,0.7c0,0.2-0.1,0.3-0.1,0.4c1.2-0.3,2.4-0.5,3.7-0.7
			c-2.3-0.4-4.5-0.8-6.8-1.2c-0.3,0.2-0.7,0.4-1,0.4c-0.6,0-1-0.3-1.4-0.7c-0.8,0.2-1.5,0.4-2.3,0.6c-1,0.2-2.1,0.3-3.1,0.4
			c0.5,0.3,0.8,0.8,0.8,1.4c0,1-0.8,1.8-1.8,1.8c-1,0-1.8-0.8-1.8-1.8c0-0.5,0.2-0.9,0.5-1.2c-1.1,0.1-2.4,0.1-3.5,0.2
			c0,0.7-0.6,1.1-1.2,1.1c-0.5,0-0.9-0.3-1.1-0.8c-0.9,0.3-1.8,0.5-2.7,0.8c-0.3,0.4-0.8,0.6-1.3,0.6c-0.2,0-0.4,0-0.6-0.1
			c-1.1,0.3-2.4,0.7-3.5,0.9c0,0.4-0.3,0.7-0.7,0.7c-0.2,0-0.5-0.1-0.6-0.3C338.4,222.6,335.2,223.4,331.9,224.3z M358,211.8
			c0,1-0.7,2-1.6,2.4c1,0,2.2,0,3.3,0c2.2,0,4.2,0.1,6.4,0.1c2.3-0.6,4.5-1.2,6.7-1.8l0,0c-0.7,0-1.2-0.6-1.2-1.2
			c0-0.7,0.6-1.2,1.2-1.2c0.7,0,1.2,0.6,1.2,1.2c0,0.5-0.3,0.8-0.7,1.1c2.4-0.7,5-1.3,7.4-2c0-0.4,0.3-0.6,0.7-0.6
			c0.2,0,0.4,0.1,0.6,0.3c3.2-0.8,6.4-1.6,9.6-2.4c6.5-1.4,12.9-3.1,19.3-4.8c0-0.1,0-0.2,0-0.4c0-1,0.8-1.8,1.8-1.8
			c0.8,0,1.4,0.5,1.7,1.2c1.9-0.5,3.9-1,5.7-1.5c-4.9-0.6-9.7-1.1-14.6-1.7c-0.9,0.3-1.8,0.6-2.7,0.8c1,0,1.8,0.8,1.8,1.8
			c0,1-0.8,1.8-1.8,1.8c-1,0-1.8-0.8-1.8-1.8c0-0.7,0.3-1.1,0.8-1.5c-0.2,0-0.3,0.1-0.5,0.1c-5.5,1.2-11,1.7-16.6,2.4
			c0.2,0.4,0.3,0.8,0.3,1.2c0,1.4-1.1,2.5-2.5,2.5c-1.4,0-2.5-1.1-2.5-2.5c0-0.2,0-0.3,0-0.5c-0.4,0.1-0.8,0.2-1.1,0.2l-12.5,2.6
			c-0.3,0.5-0.8,0.8-1.5,0.8c-0.4,0-0.8-0.1-1-0.3l-7.1,1.5c-3,0.7-6.1,1.2-9.1,1.9c-0.3,0.5-0.8,0.8-1.4,0.8
			c-0.4,0-0.7-0.1-0.9-0.3c-2.4,0.5-4.8,0.9-7.1,1.5c0,0.2-0.1,0.3-0.1,0.5c3.5,0.6,6.9,1.2,10.3,1.8c0.7,0,1.2,0,1.9,0
			c-0.2-0.1-0.3-0.3-0.3-0.6c0-0.4,0.3-0.7,0.7-0.7c0.4,0,0.7,0.3,0.7,0.7c0,0.2-0.1,0.4-0.3,0.6c1.1,0,2.3,0,3.4,0
			c-0.9-0.4-1.5-1.3-1.5-2.4c0-1.4,1.1-2.5,2.5-2.5C356.9,209.2,358,210.4,358,211.8z M423.5,202.5c0-0.8,0.4-1.3,1-1.6
			c-0.7-0.1-1.3-0.2-2-0.2c-2.7,0.7-5.4,1.4-8.1,2.1c-0.1,0.8-0.8,1.5-1.8,1.5c-0.6,0-1.1-0.3-1.4-0.7c-4.1,1.1-8.2,2.2-12.3,3.2
			c0.3,0.2,0.5,0.6,0.5,0.9c0,0.7-0.6,1.1-1.1,1.1c-0.7,0-1.1-0.6-1.1-1.1c0-0.2,0-0.3,0.1-0.5c-2.7,0.7-5.5,1.3-8.2,1.9
			c-0.2,0.1-0.5,0.1-0.7,0.2c0.2,0.2,0.3,0.5,0.3,0.8c0,0.7-0.6,1.2-1.2,1.2c-0.7,0-1.2-0.6-1.2-1.2c0-0.1,0-0.1,0-0.2
			c-1.4,0.4-2.7,0.7-4,1c-0.1,0.1-0.3,0.2-0.5,0.2c-0.1,0-0.1,0-0.2,0c-4,1-8.2,2.2-12.2,3.2c2,0.1,3.9,0.1,5.8,0.2
			c5.5-1.4,11-2.6,16.6-3.7c3.6-0.7,7.2-1.2,10.8-1.8c0.3-0.2,0.7-0.4,1-0.4c0.2,0,0.5,0,0.7,0.1c4.9-0.7,9.8-1.2,14.7-1.7
			c6.2-1.7,12.4-3.3,18.7-4.9c-3.7-0.4-7.3-0.8-11-1.2c0.4,0.3,0.7,0.8,0.7,1.4c0,1-0.8,1.8-1.8,1.8
			C424.4,204.3,423.5,203.6,423.5,202.5z M417.2,207.6c-4.2,0.5-8.6,0.9-12.8,1.5c0.5,0.3,0.8,0.8,0.8,1.5c0,0.1,0,0.2,0,0.3
			c0.8-0.2,1.5-0.4,2.2-0.7c-0.1-0.2-0.2-0.4-0.2-0.6c0-0.5,0.4-0.9,0.9-0.9s0.9,0.4,0.9,0.9v0.1
			C411.8,209.1,414.5,208.4,417.2,207.6z M409.8,214.1c0-0.3,0.1-0.5,0.2-0.7c-2.6,0.8-5.3,1.5-7.8,2.2c0.8-0.1,1.7-0.1,2.6-0.2
			c0.3-0.6,0.8-0.9,1.6-0.9c0.7,0,1.1,0.3,1.5,0.8c0.9,0,2-0.1,2.9-0.1C410.2,215.1,409.8,214.7,409.8,214.1z M433.3,215.2
			c1.8,0,3.6,0.1,5.4,0.1c-0.2-0.2-0.4-0.6-0.5-0.8C436.5,214.8,434.9,215,433.3,215.2z M415.4,215.7c-2.4,0-5,0.1-7.4,0.2v0.1
			c1.5,0.1,2.9,0.1,4.4,0.2C413.4,216,414.4,215.9,415.4,215.7z M367.3,217.6c2.4,0.5,4.8,0.8,7.2,1.3c1.2-0.3,2.5-0.5,3.9-0.7
			c0.1,0,0.1,0,0.2,0c0.3-0.6,0.8-0.9,1.6-0.9c0.4,0,0.8,0.1,1,0.3c1.4-0.4,2.8-0.7,4.2-1c0.9-0.3,1.8-0.6,2.7-0.8
			c0-0.1,0-0.1,0.1-0.2c-1.1-0.1-2.2-0.1-3.3-0.2c-0.2,0.3-0.6,0.4-0.9,0.4s-0.8-0.2-0.9-0.5c-1.9-0.1-3.7-0.2-5.6-0.2
			c0.2,0.2,0.2,0.5,0.2,0.8c0,0.7-0.6,1.2-1.2,1.2c-0.7,0-1.2-0.6-1.2-1.2c0-0.3,0.1-0.6,0.3-0.8c-0.4,0-0.8,0-1.2,0
			c-2.2,0.6-4.3,1.1-6.5,1.7C367.6,217.1,367.4,217.4,367.3,217.6z M367.7,216.5L367.7,216.5c1.8-0.4,3.7-0.9,5.5-1.4
			c-2-0.1-3.9-0.1-5.8-0.2c-0.1,0-0.3,0.1-0.4,0.1C367.4,215.3,367.7,215.8,367.7,216.5z M397.7,212.9c0,0.1,0,0.1,0,0.2
			c1.4-0.4,2.9-0.8,4.3-1.2c-0.3-0.3-0.5-0.8-0.5-1.1c0-0.5,0.2-0.8,0.4-1.1c-4.3,0.7-8.6,1.3-12.8,2.2c-4.5,0.8-8.9,1.8-13.4,2.9
			c2.3,0.1,4.5,0.2,6.8,0.3c0-0.1,0-0.1,0-0.2c0-0.7,0.6-1.2,1.2-1.2c0.7,0,1.2,0.6,1.2,1.2c0,0.1,0,0.2,0,0.3
			c1.1,0.1,2.3,0.1,3.4,0.2c0.3-0.4,0.8-0.6,1.3-0.6c0.4,0,0.8,0.2,1.1,0.4c1.6-0.5,3.2-0.9,4.8-1.4c-0.2-0.2-0.3-0.5-0.3-0.8
			c0-0.7,0.6-1.2,1.2-1.2C397.2,211.7,397.7,212.2,397.7,212.9z M364.2,216.5c0-0.3,0.1-0.5,0.2-0.8c-1,0.3-2.1,0.6-3.1,0.8
			c1,0.2,2.1,0.4,3.1,0.6C364.2,216.8,364.2,216.6,364.2,216.5z M309.9,229.8c1.7,0.1,3.3,0.2,5,0.3c-0.2-0.3-0.3-0.7-0.3-1
			c0-0.2,0-0.3,0.1-0.5C313,229.1,311.5,229.4,309.9,229.8z M318.2,229.2c0,0.2,0,0.4-0.1,0.6c2.5-0.5,5-0.9,7.5-1.4
			c-2.5,0-5.1,0.1-7.7,0.1C318.1,228.5,318.2,228.8,318.2,229.2z M371.7,223.3c1.8-0.4,3.6-0.7,5.3-1c0-0.1,0-0.2,0-0.2V222
			c-1.8,0.4-3.6,0.8-5.4,1.1C371.7,223.2,371.7,223.3,371.7,223.3z M378.4,222.1c2-0.4,3.9-0.8,5.8-1.1c-0.5-0.1-1-0.2-1.5-0.3
			c-1.5,0.4-2.9,0.7-4.4,1C378.3,221.8,378.4,221.9,378.4,222.1z M395.2,219c0-0.1,0-0.2,0-0.3c0-0.5,0.1-0.8,0.4-1.2
			c-4,1-8,2.1-12,3c-0.1,0-0.1,0-0.2,0c0.6,0.1,1,0.2,1.6,0.3c0.2,0,0.5-0.1,0.7-0.1c0.2-0.5,0.7-0.8,1.1-0.8c0.4,0,0.8,0.2,0.9,0.5
			C390.1,219.9,392.7,219.5,395.2,219z M408,216.9c0.6-0.1,1.1-0.2,1.7-0.3c-0.6,0-1.1,0-1.6-0.1C408.1,216.6,408,216.7,408,216.9z
			 M425.3,216.5c1.7,0,3.5,0,5.2,0c5,0,10-0.2,15-0.5c-1.8-0.1-3.7-0.1-5.5-0.2h-0.1c-0.1,0-0.1,0-0.2,0c-3.2-0.1-6.4-0.2-9.5-0.2
			C428.6,216,426.9,216.2,425.3,216.5z M463.4,205.1c-4,0.1-7.9,0.2-11.8,0.4c0,0.8-0.7,1.3-1.4,1.3c-0.8,0-1.3-0.6-1.4-1.2
			c-0.8,0-1.5,0.1-2.3,0.1c-0.1,0.1-0.3,0.2-0.5,0.2c-0.2,0-0.3-0.1-0.4-0.2c-0.5,0-0.8,0-1.3,0.1c-2.1,0.1-4.1,0.2-6.2,0.3
			c0.1,0.2,0.2,0.5,0.2,0.8c0,1-0.8,1.8-1.8,1.8c-1,0-1.8-0.8-1.8-1.8c0-0.1,0-0.3,0-0.4c-5.5,1.5-10.8,3.1-16.3,4.6
			c0.4,0,0.6,0.3,0.6,0.7c0,0.4-0.3,0.7-0.7,0.7c-0.4,0-0.7-0.3-0.7-0.7c0-0.2,0.1-0.4,0.3-0.6c-2.2,0.7-4.4,1.2-6.6,1.9
			c0.4,0.2,0.7,0.6,0.7,1.1c0,0.6-0.4,0.9-0.8,1.1c1.9-0.1,3.7-0.1,5.6-0.1c0.3-0.7,0.8-1.1,1.6-1.1c0.7,0,1.2,0.4,1.5,0.9
			c3.5-0.6,7-1,10.5-1.5c0.1-0.3,0.3-0.6,0.7-0.6c0.3,0,0.5,0.2,0.6,0.4c5.4-0.8,10.8-1.5,16.2-2.2c0.2-0.4,0.7-0.7,1.1-0.7
			c0.4,0,0.7,0.2,0.9,0.5c2.3-0.3,4.6-0.6,6.9-0.8c-0.3-0.3-0.5-0.8-0.5-1.1c0-1,0.8-1.8,1.8-1.8c1,0,1.8,0.8,1.8,1.8
			c0,0.3-0.1,0.6-0.2,0.8c1.5-0.2,3-0.4,4.4-0.6h0.1c0,0,0,0,0-0.1c0-1,0.8-1.8,1.8-1.8s1.7,0.8,1.8,1.6c1.8-0.1,3.6-0.2,5.5-0.3
			c-0.5-0.3-0.8-0.8-0.8-1.4c0-0.5,0.2-0.8,0.5-1.1C469.9,205.7,466.6,205.4,463.4,205.1z M446.2,203.4c-2.8,0.8-5.6,1.5-8.4,2.3
			c0.1,0.1,0.1,0.1,0.2,0.2c2.5-0.1,5-0.3,7.5-0.4c0-0.1-0.1-0.2-0.1-0.3c0-0.4,0.3-0.7,0.7-0.7c0.4,0,0.7,0.3,0.7,0.7
			c0,0.1,0,0.2,0,0.2c0.3,0,0.6,0,0.8,0c0.4,0,0.8,0,1.2,0c0.1-0.7,0.7-1.2,1.3-1.2c0.7,0,1.2,0.5,1.3,1.1c3.4-0.1,6.7-0.2,10.1-0.3
			C456.5,204.4,451.4,203.9,446.2,203.4z M478.4,192.5c-4.7,0.2-9.4,0.3-14.1,0.4c-8.3,1-16.5,2.4-24.6,4c-0.8,0.2-1.5,0.3-2.4,0.5
			c0.5,0.5,0.8,1.1,0.8,1.8c0,1.4-1.1,2.5-2.5,2.5s-2.5-1.1-2.5-2.5c0-0.3,0.1-0.7,0.2-0.9c-3.1,0.7-6.3,1.4-9.4,2.3
			c4.9,0.6,9.9,1.1,14.9,1.7C451.8,198.8,465.1,195.6,478.4,192.5z M511.7,188.8c-2.6,0.6-5.3,1.1-7.9,1.8c2.8-0.2,5.6-0.4,8.5-0.6
			c8.1-0.5,16.2-1.4,24.2-2.4C528.2,188,519.9,188.3,511.7,188.8z M473.3,191.8c3.2-0.1,6.3-0.2,9.5-0.3c0.5-0.1,0.9-0.2,1.4-0.3
			c0.2-0.1,0.4-0.2,0.7-0.2h0.1c0.9-0.2,1.8-0.4,2.7-0.6C482.9,190.8,478.1,191.2,473.3,191.8z M448.4,193.2
			c-13,2.3-26.2,3.8-39.3,4.4c-0.8,0.3-1.6,0.6-2.4,0.8c4.9,0.6,9.8,1.1,14.8,1.7c4.2-1.1,8.4-2.2,12.6-3c0.5-0.4,0.9-0.6,1.5-0.6
			c0.2,0,0.4,0,0.6,0.1c2.4-0.5,4.7-0.9,7.1-1.3c4.5-0.8,9-1.6,13.5-2.3C454,193.1,451.2,193.1,448.4,193.2z M407.7,197.7
			c-1.8,0.1-3.6,0.2-5.5,0.2c1.2,0.1,2.4,0.3,3.6,0.4C406.5,198.1,407.1,197.9,407.7,197.7z M420.5,193.9c-3.5,1.1-7,2.4-10.4,3.5
			c12.3-0.7,24.6-2.1,36.7-4.1C438,193.4,429.2,193.6,420.5,193.9z M383.1,195.8c2.4,0.3,4.7,0.6,7.1,0.8c0.3-0.3,0.7-0.4,1.1-0.4
			c0.6,0,1,0.3,1.4,0.7c2.6,0.3,5.3,0.6,7.8,0.9c2.7-0.1,5.5-0.2,8.1-0.3c3.5-1.2,6.9-2.4,10.3-3.5c-8.4,0.3-16.8,0.6-25.2,1.1
			C390.2,195.2,386.6,195.5,383.1,195.8z M397.4,197.8c-1.5-0.2-3-0.4-4.4-0.5c0.1,0.2,0.1,0.4,0.1,0.6
			C394.4,197.8,395.9,197.8,397.4,197.8z M380.8,195.9c-4.3,0.4-8.7,0.8-13.1,1.2c7.2,0.5,14.5,0.8,21.7,0.8c0-0.4,0.1-0.7,0.3-0.9
			C386.7,196.6,383.8,196.2,380.8,195.9z M322.3,209.8c4.4,0.7,8.8,1.4,13.2,2.2v-0.1c0-0.8,0.6-1.3,1.3-1.3c0.7,0,1.1,0.5,1.3,1
			c2.3-0.5,4.5-0.9,6.8-1.4c-0.3-0.3-0.5-0.8-0.5-1.2c0-1,0.8-1.8,1.8-1.8c1,0,1.8,0.8,1.8,1.8c0,0.2,0,0.4-0.1,0.6
			c3.8-0.8,7.6-1.6,11.4-2.4c1.4-0.3,2.9-0.6,4.3-0.8c-0.3-0.3-0.4-0.7-0.4-1.1c0-0.9,0.8-1.8,1.8-1.8c0.9,0,1.8,0.8,1.8,1.8
			c0,0.2,0,0.3-0.1,0.5c4.5-0.9,9-1.9,13.5-2.7c0.4-0.9,1.3-1.7,2.4-1.7c0.8,0,1.5,0.4,2,0.9c6.7-0.9,13.4-1.4,19.8-3.3
			c0.2-0.1,0.4-0.1,0.5-0.2c-1.9-0.2-3.8-0.5-5.6-0.7c-1.3,0-2.6,0.1-4,0.1c-0.8,0-1.5,0-2.4,0c-0.1,0.9-0.8,1.7-1.8,1.7
			s-1.7-0.8-1.8-1.6c-7.8,0-15.6-0.3-23.3-0.8c-0.5,0-0.9,0.1-1.3,0.2c0.1,0.2,0.1,0.4,0.1,0.6c0,1-0.8,1.8-1.8,1.8
			c-1,0-1.8-0.8-1.8-1.8c0-0.1,0-0.1,0-0.2c-1.3,0.1-2.5,0.3-3.9,0.5c0.3,0.2,0.5,0.6,0.5,0.9c0,0.7-0.6,1.2-1.2,1.2
			c-0.7,0-1.2-0.6-1.2-1.2c0-0.3,0.1-0.6,0.3-0.8c-1.7,0.2-3.5,0.4-5.2,0.6c-0.2,0.3-0.5,0.5-0.8,0.5c-0.3,0-0.5-0.1-0.7-0.3
			c-2.7,0.4-5.6,0.7-8.3,1c-0.3,0.7-0.9,1-1.7,1c-0.6,0-1-0.3-1.4-0.7c-1.6,0.2-3.3,0.4-4.9,0.7c0.3,0.5,0.5,0.9,0.5,1.5
			c0,1.5-1.2,2.7-2.7,2.7s-2.7-1.2-2.7-2.7c0-0.3,0.1-0.6,0.1-0.8c-4.8,0.7-9.5,1.2-14.3,1.9c0.3,0.3,0.4,0.7,0.4,1.1
			c0,1-0.8,1.8-1.8,1.8s-1.8-0.8-1.8-1.8c0-0.3,0.1-0.5,0.2-0.8c-5.4,0.7-10.7,1.4-16.1,2c3.5,0.4,7,0.8,10.4,1.1c0-0.1,0-0.2,0-0.3
			c0-0.8,0.7-1.6,1.6-1.6c0.8,0,1.6,0.7,1.6,1.6c0,0.3-0.1,0.5-0.2,0.7c2.1,0.3,4.1,0.6,6.1,0.8c0.2-0.8,0.8-1.4,1.8-1.4
			c1,0,1.8,0.8,1.8,1.8c0,0.1,0,0.1,0,0.2C319.1,209.3,320.7,209.5,322.3,209.8z M309.3,216.6c-0.1,0.2-0.2,0.4-0.3,0.6
			c1.4-0.3,2.8-0.6,4.1-0.8C311.8,216.5,310.6,216.5,309.3,216.6z M293,220.2c4.9-0.8,9.7-1.8,14.6-2.7c-0.3-0.1-0.5-0.4-0.6-0.7
			c-4.2,0.3-8.5,0.5-12.7,0.8c0,0.2,0.1,0.3,0.1,0.5C294.4,219,293.8,219.7,293,220.2z M347,214.2c-3-0.6-6.1-1.1-9.1-1.6
			c-0.3,0.3-0.7,0.6-1,0.6c-0.6,0-0.9-0.3-1.2-0.8c-5.1,1-10.2,2.1-15.2,3c3.1-0.2,6.1-0.4,9.2-0.6c0.1-0.3,0.4-0.4,0.7-0.4
			c0.3,0,0.5,0.2,0.6,0.4C336.3,214.6,341.7,214.3,347,214.2z M359.2,216.2c0.1,0,0.2-0.1,0.3-0.1c-0.2-0.1-0.3-0.3-0.3-0.6
			c0-0.4,0.3-0.7,0.7-0.7c0.4,0,0.7,0.3,0.7,0.7c0,0.1,0,0.2-0.1,0.3c1.2-0.4,2.5-0.7,3.8-1c-2.2-0.1-4.4-0.1-6.6-0.1s-4.4,0-6.6,0
			C353.8,215.1,356.5,215.6,359.2,216.2z M360.6,216.6c-2.4,0.7-4.7,1.2-7.1,1.9c1.2-0.1,2.4-0.1,3.6-0.2c0.3-0.2,0.6-0.3,0.9-0.3
			c0.3,0,0.5,0.1,0.7,0.1c1.8-0.2,3.7-0.4,5.5-0.8c0.1,0,0.2-0.1,0.3-0.1l0,0C363.1,217.1,361.8,216.9,360.6,216.6z M307.6,224.7
			c6.3,0.2,12.6,0.2,18.8,0.1c0.2,0,0.3-0.1,0.5-0.1c0.1-0.3,0.3-0.6,0.7-0.6c0.2,0,0.4,0.1,0.6,0.3c0.5-0.1,1-0.3,1.5-0.4
			c0.2-0.4,0.6-0.7,1-0.7c0.3,0,0.5,0.1,0.7,0.2c3.5-0.9,7.1-1.9,10.5-2.7c0.1-0.1,0.2-0.1,0.4-0.1l0,0c1-0.3,2.2-0.6,3.2-0.8
			l-0.1-0.1l-7.8,1c-0.3,0.2-0.7,0.4-1,0.4c-0.2,0-0.4,0-0.7-0.1l-1.3,0.2c-3,0.4-5.9,0.8-8.9,1.2c-0.3,0.3-0.8,0.5-1.2,0.5
			c-0.3,0-0.6-0.1-0.8-0.2c-1.4,0.2-2.7,0.4-4.1,0.6c-0.5,0.5-1.1,0.8-1.9,0.8c-0.5,0-0.9-0.2-1.4-0.4
			C313.4,224,310.5,224.4,307.6,224.7z M295.1,228.5c0.7,0.1,1.4,0.2,2.1,0.2c0.2-0.5,0.7-0.8,1.1-0.8c0.6,0,1.1,0.4,1.2,0.9
			c2,0.2,4,0.4,5.9,0.6c0-0.7,0.4-1.1,0.9-1.4c-4.8-0.1-9.6-0.3-14.4-0.6c-1.9-0.1-3.7-0.3-5.6-0.4c-0.1,0-0.1,0-0.2,0
			C289.2,227.6,292.2,228.1,295.1,228.5z M291.9,234.1L291.9,234.1c-0.7,0-1.3,0.2-1.9,0.3C290.7,234.3,291.3,234.2,291.9,234.1z
			 M306.9,231.7c-1.2-0.1-2.4-0.2-3.6-0.3c-2.7,0.7-5.5,1.2-8.2,1.9c0.1,0.1,0.2,0.2,0.2,0.4C299.2,233,303,232.4,306.9,231.7z
			 M323.4,230.4c0.4,0,0.7,0,1,0c0.5-0.6,1.1-0.9,1.9-0.9c0.8,0,1.4,0.3,1.9,0.8c5.5-0.2,10.8-0.8,16.2-1.6v-0.1
			c0-0.7,0.6-1.2,1.2-1.2c0.6,0,1,0.4,1.2,0.9c1.6-0.3,3.2-0.5,4.7-0.8c0.8-0.2,1.8-0.4,2.6-0.6v-0.1c0-0.3,0.1-0.6,0.3-0.8
			c-5.5,0.8-10.8,1.3-16.4,1.7c-0.2,0.5-0.7,0.8-1.2,0.8c-0.6,0-0.9-0.3-1.1-0.8c-2.4,0.1-4.9,0.2-7.3,0.2
			c-3.6,0.8-7.2,1.4-10.8,2.1l0,0C319.7,230.3,321.5,230.4,323.4,230.4z M418.7,226.3c8.8-2.1,17.9-3.8,26.9-5
			c0.1-0.2,0.3-0.3,0.6-0.3c0.2,0,0.3,0.1,0.4,0.2c18.2-2.5,36.6-3.4,54.9-2.8c15.1,0.3,30.2,1.3,45.2,2.4c0-0.2,0.1-0.4,0.2-0.6
			c-1.4-0.5-2.9-0.9-4.3-1.4c-3.6,0-7.1,0-10.6,0c-0.2,0.3-0.6,0.5-0.9,0.5s-0.8-0.2-0.9-0.5c-11-0.1-21.9-0.3-32.8-0.7
			c-8.5-0.3-16.8-1-25.2-1.5c-4-0.1-7.9-0.1-11.9-0.2c-0.1,0.1-0.3,0.2-0.5,0.2s-0.4-0.1-0.5-0.2c-2.1-0.1-4.2-0.1-6.3-0.2
			c-5.9,0.2-11.9,0.6-17.9,0.8c0.4,0.3,0.7,0.8,0.7,1.4c0,1-0.8,1.8-1.8,1.8c-1,0-1.8-0.8-1.8-1.8c0-0.6,0.2-1,0.6-1.3
			c-1.7,0-3.5,0-5.2,0c-1.8,0-3.6,0-5.4-0.1c-0.9,0.2-1.9,0.3-2.9,0.5c-0.2,0.1-0.5,0.2-0.8,0.2c-0.1,0-0.2,0-0.3,0
			c-4.1,0.7-8.4,1.2-12.6,1.8c-2,0.3-3.9,0.6-5.8,0.8c-0.5,0.7-1.2,1.1-2.1,1.1c-0.6,0-1.1-0.2-1.5-0.6c-2,0.4-4,0.7-5.9,1
			c5.2,0.9,10.3,1.8,15.4,2.6c0.1-0.9,0.8-1.7,1.8-1.7c1,0,1.8,0.8,1.8,1.8c0,0.2,0,0.3-0.1,0.5
			C412.4,225.4,415.6,225.9,418.7,226.3z M443.5,229.4c-3.2-0.3-6.4-0.6-9.6-0.9c-4.4-0.5-8.9-1-13.4-1.7
			c-5.8,1.4-11.6,2.9-17.3,4.6c-0.1,0.4-0.3,0.8-0.6,0.9c6.7,0,13.5,0.4,20.1,1c7.3,0.7,14.7,1.6,21.9,2.5c4.9-1.2,9.8-2.4,14.7-3.3
			c3.5-0.7,6.9-1.3,10.3-1.9c-5.6-0.1-11.2-0.3-16.7-0.7c-0.7,2-2.5,3.3-4.6,3.3C445.9,233.5,443.9,231.8,443.5,229.4z M399.8,232.4
			c0.2,0,0.4,0,0.6,0c-0.1,0-0.1-0.1-0.2-0.1C400.1,232.4,399.9,232.4,399.8,232.4z M383.9,235.5c0,0.4-0.1,0.7-0.3,0.9
			c3.7-1.1,7.3-2.3,10.9-3.3l0,0c-2.4,0.1-5,0.2-7.4,0.4c-1.4,0.1-2.8,0.2-4.2,0.4C383.5,234.1,383.9,234.8,383.9,235.5z
			 M303.8,259.5c2.9-0.2,5.9-0.4,8.8-0.7c0-0.5,0.2-0.8,0.4-1.2C309.9,258.3,306.8,258.9,303.8,259.5z M443.4,236.3
			c-7.8-1-15.6-2-23.5-2.6c-7.3-0.6-14.7-0.8-22-0.8c-2,0.6-4,1.2-6,1.8c-7,2.1-13.8,4.2-20.8,6.4l0,0c0,1-0.8,1.8-1.8,1.8
			c-0.7,0-1.1-0.3-1.5-0.8c-1.7,0.6-3.4,1-5.1,1.6c0.2,0.4,0.4,0.8,0.4,1.2c0,1.4-1.1,2.5-2.5,2.5c-1.3,0-2.4-1-2.5-2.4
			c-4,1.2-7.9,2.4-11.8,3.6c0,0.2,0.1,0.3,0.1,0.5c0,1.4-1.1,2.5-2.5,2.5c-1,0-2-0.7-2.4-1.6c-8.3,2.4-16.6,4.6-24.9,6.5
			c0.5,0.4,0.8,0.8,1,1.5c5-0.7,10-1.5,14.9-2.4c-0.4-0.3-0.6-0.8-0.6-1.3c0-0.9,0.8-1.8,1.8-1.8c1,0,1.8,0.8,1.8,1.8
			c0,0.3-0.1,0.5-0.2,0.7c0.5-0.1,0.9-0.2,1.3-0.3c5-1.1,10-2.4,14.9-3.9c4.8-1.5,9.8-3.2,14.8-4.3c9.9-2.6,20-4.9,30.2-6.2
			c12.7-1.7,25.5-2.4,38.3-1.8C437.5,237.9,440.4,237.1,443.4,236.3z M451.5,237c2.1,0.3,4.2,0.7,6.3,0.9c-0.8-0.4-1.3-1.1-1.4-2
			c-0.3,0.1-0.5,0.1-0.8,0.2C454.4,236.4,453,236.7,451.5,237z M583.6,233.2c-9.3-1.8-18.8-3-28.3-3.9v0.1c0,0.4-0.3,0.7-0.7,0.7
			c-0.4,0-0.7-0.3-0.7-0.7c0-0.1,0-0.1,0-0.2c-0.2,0-0.3,0-0.5,0c-2.8-0.3-5.7-0.5-8.6-0.6c-0.8,1.7-2.4,2.9-4.4,2.9
			c-2.2,0-4-1.3-4.6-3.2c-4-0.1-8.1-0.1-12.2-0.1c-11.2,0.8-22.5,1.7-33.7,2.3c-9.6,1.1-19.2,2.6-28.7,4.5c0.1,0.2,0.1,0.5,0.1,0.8
			c0,1.3-0.9,2.4-2.2,2.5c9.8,1.5,19.6,3,29.3,4.1c19,2.3,38.3,3.2,57.3,0.3C558.7,240.4,571.3,237.2,583.6,233.2z M523.1,228.1
			c-10.4,0.2-20.9,0.8-31.3,2.1C502.2,229.6,512.7,228.9,523.1,228.1z M597.1,226.3c0-0.3,0.1-0.5,0.1-0.7
			c-13.3-0.8-26.5-2-39.8-3.1c-0.3,0.5-0.8,0.8-1.2,0.8c1.6,0.7,3.1,1.2,4.7,1.9c-1.6-0.7-3.3-1.2-4.9-1.9l0,0
			c-0.5,0-0.8-0.2-1.1-0.5c-0.8-0.3-1.4-0.6-2.2-0.8c-0.8-0.1-1.6-0.1-2.4-0.2c-0.3,0.5-0.8,0.8-1.5,0.8c-0.8,0-1.4-0.5-1.7-1
			c-16.7-1.3-33.3-2.4-50-2.6c-16.7-0.2-33.5,0.6-50.1,2.7c-0.1,0.3-0.4,0.5-0.7,0.5c-0.2,0-0.4-0.1-0.6-0.3
			c-0.7,0.1-1.3,0.2-1.9,0.3c-7.5,1-15.1,2.5-22.5,4.3c5.3,0.8,10.6,1.4,15.9,1.9c2.1,0.2,4.1,0.4,6.3,0.6c0-0.2,0-0.4,0-0.7
			c0-2.7,2.2-4.9,4.9-4.9c2.7,0,4.9,2.2,4.9,4.9c0,0.5-0.1,0.9-0.2,1.3c5.9,0.4,11.9,0.6,17.8,0.7c14.9-2.5,29.9-4.1,45-4.8
			c-0.3,0-0.6-0.3-0.6-0.7c0-0.4,0.3-0.7,0.7-0.7s0.7,0.3,0.7,0.7c0,0.3-0.2,0.6-0.6,0.7c6.6-0.3,13.2-0.3,19.8-0.2
			c0.4-2.3,2.4-4,4.8-4c2.5,0,4.6,2,4.9,4.4c4.7,0.3,9.4,0.7,14,1.1c9.5,1,18.8,2.6,28.1,4.7c3.5-1.2,7-2.5,10.4-3.9
			C597.5,227.7,597.1,227.1,597.1,226.3z M622.1,213.4c-0.4,0-0.7,0.3-0.7,0.7s0.3,0.7,0.7,0.7c0.4,0,0.7-0.3,0.7-0.7
			S622.5,213.4,622.1,213.4z M592.9,212c0,0.4,0.3,0.7,0.7,0.7s0.7-0.3,0.7-0.7c0-0.4-0.3-0.7-0.7-0.7S592.9,211.8,592.9,212z
			 M574.1,212.9c0,0.4,0.3,0.7,0.7,0.7c0.4,0,0.7-0.3,0.7-0.7c0-0.4-0.3-0.7-0.7-0.7C574.4,212.2,574.1,212.5,574.1,212.9z
			 M532.9,214.4c0,0.4,0.3,0.7,0.7,0.7s0.7-0.3,0.7-0.7c0-0.4-0.3-0.7-0.7-0.7S532.9,214,532.9,214.4z M560.6,217.5
			c0,0.4,0.3,0.7,0.7,0.7s0.7-0.3,0.7-0.7c0-0.4-0.3-0.7-0.7-0.7C560.9,216.8,560.6,217.1,560.6,217.5z M605.6,221.3
			c0,0.4,0.3,0.7,0.7,0.7c0.4,0,0.7-0.3,0.7-0.7s-0.3-0.7-0.7-0.7C605.9,220.7,605.6,221,605.6,221.3z M619.5,214.8
			c0,0.4,0.3,0.7,0.7,0.7c0.4,0,0.7-0.3,0.7-0.7s-0.3-0.7-0.7-0.7C619.8,214.1,619.5,214.4,619.5,214.8z M506.6,213.2
			c0.4,0,0.7-0.3,0.7-0.7c0-0.4-0.3-0.7-0.7-0.7c-0.4,0-0.7,0.3-0.7,0.7C505.9,212.9,506.2,213.2,506.6,213.2z M423.4,196.2
			c0.4,0,0.7-0.3,0.7-0.7c0-0.4-0.3-0.7-0.7-0.7s-0.7,0.3-0.7,0.7C422.8,195.9,423.1,196.2,423.4,196.2z M386.9,207
			c0.4,0,0.7-0.3,0.7-0.7c0-0.4-0.3-0.7-0.7-0.7s-0.7,0.3-0.7,0.7C386.3,206.7,386.5,207,386.9,207z M353.4,201.6
			c0.4,0,0.7-0.3,0.7-0.7c0-0.4-0.3-0.7-0.7-0.7c-0.4,0-0.7,0.3-0.7,0.7C352.7,201.3,353.1,201.6,353.4,201.6z M345,211.8
			c-0.4,0-0.7,0.3-0.7,0.7c0,0.4,0.3,0.7,0.7,0.7c0.4,0,0.7-0.3,0.7-0.7C345.6,212.1,345.3,211.8,345,211.8z M387.6,228.6
			c0-0.4-0.3-0.7-0.7-0.7s-0.7,0.3-0.7,0.7c0,0.4,0.3,0.7,0.7,0.7C387.3,229.3,387.6,229,387.6,228.6z M471.7,202.8
			c0,0.4,0.3,0.7,0.7,0.7c0.4,0,0.7-0.3,0.7-0.7s-0.3-0.7-0.7-0.7C472,202.2,471.7,202.4,471.7,202.8z M475.1,214.3
			c0.4,0,0.7-0.3,0.7-0.7c0-0.4-0.3-0.7-0.7-0.7c-0.4,0-0.7,0.3-0.7,0.7C474.4,214,474.7,214.3,475.1,214.3z M516.7,204.8
			c0,0.4,0.3,0.7,0.7,0.7s0.7-0.3,0.7-0.7c0-0.4-0.3-0.7-0.7-0.7C517,204.1,516.7,204.4,516.7,204.8z M560.2,212.5
			c0,0.4,0.3,0.7,0.7,0.7s0.7-0.3,0.7-0.7c0-0.4-0.3-0.7-0.7-0.7C560.5,211.8,560.2,212.1,560.2,212.5z M585.6,216.4
			c0,0.4,0.3,0.7,0.7,0.7s0.7-0.3,0.7-0.7c0-0.4-0.3-0.7-0.7-0.7C586,215.6,585.6,216,585.6,216.4z M575.2,227.2
			c-0.4,0-0.7,0.3-0.7,0.7c0,0.4,0.3,0.7,0.7,0.7c0.4,0,0.7-0.3,0.7-0.7C575.8,227.5,575.5,227.2,575.2,227.2z M420.4,224.5
			c-0.4,0-0.7,0.3-0.7,0.7c0,0.4,0.3,0.7,0.7,0.7s0.7-0.3,0.7-0.7C421.1,224.8,420.8,224.5,420.4,224.5z M379.6,201.2
			c0.4,0,0.7-0.3,0.7-0.7c0-0.4-0.3-0.7-0.7-0.7s-0.7,0.3-0.7,0.7S379.2,201.2,379.6,201.2z M374.5,227.1c0-0.4-0.3-0.7-0.7-0.7
			c-0.4,0-0.7,0.3-0.7,0.7c0,0.4,0.3,0.7,0.7,0.7C374.2,227.7,374.5,227.5,374.5,227.1z M425.7,217.9c0-0.4-0.3-0.7-0.7-0.7
			c-0.4,0-0.7,0.3-0.7,0.7c0,0.4,0.3,0.7,0.7,0.7S425.7,218.2,425.7,217.9z M426.4,221c-1,0-1.8,0.8-1.8,1.8c0,1,0.8,1.8,1.8,1.8
			c1,0,1.8-0.8,1.8-1.8C428.3,221.8,427.5,221,426.4,221z M426.5,208.9c-0.7,0-1.2,0.6-1.2,1.2s0.6,1.2,1.2,1.2
			c0.7,0,1.2-0.6,1.2-1.2C427.7,209.5,427.2,208.9,426.5,208.9z M290.3,239.4c0-0.7-0.6-1.2-1.2-1.2s-1.2,0.6-1.2,1.2
			s0.6,1.2,1.2,1.2C289.8,240.6,290.3,240.1,290.3,239.4z M540.8,215.8c0,0.7,0.6,1.2,1.2,1.2s1.2-0.6,1.2-1.2
			c0-0.7-0.6-1.2-1.2-1.2C541.4,214.5,540.8,215,540.8,215.8z M588.7,221.5c0,0.7,0.6,1.2,1.2,1.2s1.2-0.6,1.2-1.2s-0.6-1.2-1.2-1.2
			S588.7,220.9,588.7,221.5z M611.9,216.4c0-0.7-0.6-1.2-1.2-1.2s-1.2,0.6-1.2,1.2c0,0.7,0.6,1.2,1.2,1.2
			C611.5,217.6,611.9,217,611.9,216.4z M555.2,216.5c0,0.7,0.6,1.2,1.2,1.2c0.7,0,1.2-0.6,1.2-1.2s-0.6-1.2-1.2-1.2
			C555.8,215.2,555.2,215.8,555.2,216.5z M488.9,223.9c-0.7,0-1.2,0.6-1.2,1.2c0,0.7,0.6,1.2,1.2,1.2c0.7,0,1.2-0.6,1.2-1.2
			C490.1,224.5,489.5,223.9,488.9,223.9z M365.4,254.6c0-0.7-0.6-1.2-1.2-1.2c-0.7,0-1.2,0.6-1.2,1.2c0,0.7,0.6,1.2,1.2,1.2
			C364.9,255.9,365.4,255.3,365.4,254.6z M360.8,188.8c0-0.7-0.6-1.2-1.2-1.2c-0.7,0-1.2,0.6-1.2,1.2c0,0.7,0.6,1.2,1.2,1.2
			S360.8,189.5,360.8,188.8z M319.8,178.9c-0.7,0-1.2,0.6-1.2,1.2s0.6,1.2,1.2,1.2s1.2-0.6,1.2-1.2
			C321,179.4,320.4,178.9,319.8,178.9z M297.8,178.4c0-0.7-0.6-1.2-1.2-1.2c-0.7,0-1.2,0.6-1.2,1.2c0,0.7,0.6,1.2,1.2,1.2
			C297.3,179.6,297.8,179.1,297.8,178.4z M323.8,206c-0.7,0-1.2,0.6-1.2,1.2s0.6,1.2,1.2,1.2c0.7,0,1.2-0.6,1.2-1.2
			C325,206.6,324.5,206,323.8,206z M336.5,245.9c0-0.7-0.6-1.2-1.2-1.2c-0.7,0-1.2,0.6-1.2,1.2s0.6,1.2,1.2,1.2
			C336,247.2,336.5,246.7,336.5,245.9z M302.4,233.1c-1,0-1.8,0.8-1.8,1.8c0,1,0.8,1.8,1.8,1.8c1,0,1.8-0.8,1.8-1.8
			C304.2,233.9,303.5,233.1,302.4,233.1z M409.2,190.4c0,0.9,0.8,1.8,1.8,1.8c0.9,0,1.8-0.8,1.8-1.8c0-0.9-0.8-1.8-1.8-1.8
			C410,188.7,409.2,189.5,409.2,190.4z M398.5,149.7c0.9,0,1.8-0.8,1.8-1.8c0-0.9-0.8-1.8-1.8-1.8c-0.9,0-1.8,0.8-1.8,1.8
			C396.8,148.9,397.5,149.7,398.5,149.7z M313.9,154.7c0-0.9-0.8-1.8-1.8-1.8c-0.9,0-1.8,0.8-1.8,1.8c0,0.9,0.8,1.8,1.8,1.8
			C313.2,156.3,313.9,155.6,313.9,154.7z M295.5,191.5c-0.9,0-1.8,0.8-1.8,1.8c0,0.9,0.8,1.8,1.8,1.8c0.9,0,1.8-0.8,1.8-1.8
			C297.2,192.4,296.4,191.5,295.5,191.5z M468.7,253.9c0,0.9,0.8,1.8,1.8,1.8c0.9,0,1.8-0.8,1.8-1.8c0-0.9-0.8-1.8-1.8-1.8
			C469.5,252.2,468.7,253,468.7,253.9z M473.3,140.2c0.9,0,1.8-0.8,1.8-1.8c0-0.9-0.8-1.8-1.8-1.8c-0.9,0-1.8,0.8-1.8,1.8
			C471.6,139.4,472.3,140.2,473.3,140.2z M386.2,133.9c0.9,0,1.8-0.8,1.8-1.8c0-0.9-0.8-1.8-1.8-1.8c-1,0-1.8,0.8-1.8,1.8
			C384.4,133,385.1,133.9,386.2,133.9z M302.3,103.2c0,0.9,0.8,1.8,1.8,1.8c0.9,0,1.8-0.8,1.8-1.8c0-0.9-0.8-1.8-1.8-1.8
			C303.2,101.5,302.3,102.3,302.3,103.2z M352,294.3c-0.9,0-1.8,0.8-1.8,1.8c0,0.9,0.8,1.8,1.8,1.8c0.9,0,1.8-0.8,1.8-1.8
			C353.8,295.1,353.1,294.3,352,294.3z M477.3,280.1c1.4,0,2.5-1.1,2.5-2.5s-1.1-2.5-2.5-2.5c-1.4,0-2.5,1.1-2.5,2.5
			C474.8,279,475.9,280.1,477.3,280.1z M388.6,264.3c0-1.4-1.1-2.5-2.5-2.5c-1.4,0-2.5,1.1-2.5,2.5c0,1.4,1.1,2.5,2.5,2.5
			S388.6,265.7,388.6,264.3z M345,156.3c-1.4,0-2.5,1.1-2.5,2.5c0,1.4,1.1,2.5,2.5,2.5c1.4,0,2.5-1.1,2.5-2.5
			C347.4,157.4,346.3,156.3,345,156.3z M432.5,177.7c0-1.4-1.1-2.5-2.5-2.5c-1.4,0-2.5,1.1-2.5,2.5s1.1,2.5,2.5,2.5
			C431.4,180.2,432.5,179.1,432.5,177.7z M390.2,175.4c0-1.3-1-2.4-2.4-2.4c-1.3,0-2.4,1-2.4,2.4c0,1.3,1,2.4,2.4,2.4
			C389.2,177.7,390.2,176.7,390.2,175.4z M369.2,167c-0.8,0-1.4,0.7-1.4,1.4s0.7,1.4,1.4,1.4c0.8,0,1.4-0.7,1.4-1.4
			C370.5,167.6,370,167,369.2,167z M338.8,180.1c0,0.8,0.7,1.4,1.4,1.4s1.4-0.7,1.4-1.4s-0.7-1.4-1.4-1.4
			C339.4,178.6,338.8,179.3,338.8,180.1z M421.7,252.8c0,0.8,0.7,1.4,1.4,1.4c0.8,0,1.4-0.6,1.4-1.4c0-0.8-0.7-1.4-1.4-1.4
			C422.3,251.4,421.7,252,421.7,252.8z M506.6,252.8c0,0.8,0.7,1.4,1.4,1.4c0.8,0,1.4-0.6,1.4-1.4c0-0.8-0.7-1.4-1.4-1.4
			C507.2,251.4,506.6,252,506.6,252.8z M398.2,121.9c0.8,0,1.4-0.7,1.4-1.4c0-0.8-0.7-1.4-1.4-1.4c-0.8,0-1.4,0.7-1.4,1.4
			C396.9,121.4,397.5,121.9,398.2,121.9z M331.9,63.6c0.8,0,1.4-0.7,1.4-1.4c0-0.8-0.7-1.4-1.4-1.4c-0.8,0-1.4,0.7-1.4,1.4
			C330.5,63,331,63.6,331.9,63.6z M572.6,44.2c0.8,0,1.4-0.7,1.4-1.4c0-0.8-0.7-1.4-1.4-1.4c-0.8,0-1.4,0.7-1.4,1.4
			C571.3,43.6,571.9,44.2,572.6,44.2z M499.3,65c0.8,0,1.4-0.7,1.4-1.4c0-0.8-0.7-1.4-1.4-1.4c-0.8,0-1.4,0.7-1.4,1.4
			C497.9,64.3,498.6,65,499.3,65z M544.3,116.4c0.8,0,1.4-0.7,1.4-1.4s-0.7-1.4-1.4-1.4c-0.8,0-1.4,0.7-1.4,1.4
			C543,115.8,543.5,116.4,544.3,116.4z M568,149.3c0.8,0,1.4-0.7,1.4-1.4s-0.7-1.4-1.4-1.4s-1.4,0.7-1.4,1.4S567.3,149.3,568,149.3z
			 M360.7,59.8c0.8,0,1.4-0.7,1.4-1.4c0-0.8-0.7-1.4-1.4-1.4c-0.8,0-1.4,0.7-1.4,1.4C359.4,59.2,359.9,59.8,360.7,59.8z M610.7,76.3
			c1.7,0,3.1-1.4,3.1-3.1c0-1.7-1.4-3.1-3.1-3.1s-3.1,1.4-3.1,3.1C607.6,75,609,76.3,610.7,76.3z M422.3,116.6
			c0,1.7,1.4,3.1,3.1,3.1c1.7,0,3.1-1.4,3.1-3.1s-1.4-3.1-3.1-3.1C423.7,113.4,422.3,114.8,422.3,116.6z"/>
	</g>
</g>
</svg>
